<mxfile host="Electron" modified="2023-08-01T04:42:58.810Z" agent="Mozilla/5.0 (Windows NT 10.0; Win64; x64) AppleWebKit/537.36 (KHTML, like Gecko) draw.io/21.6.5 Chrome/114.0.5735.243 Electron/25.3.1 Safari/537.36" etag="U4OYUWbNxnk8yKYMB5hU" version="21.6.5" type="device" pages="9">
  <diagram id="kgpKYQtTHZ0yAKxKKP6v" name="Page-1">
    <mxGraphModel dx="1246" dy="519" grid="0" gridSize="10" guides="1" tooltips="1" connect="1" arrows="1" fold="1" page="1" pageScale="1" pageWidth="850" pageHeight="1100" math="0" shadow="0">
      <root>
        <mxCell id="0" />
        <mxCell id="1" parent="0" />
        <mxCell id="TgxHGiuypaRiIa6PDOnM-23" value="" style="endArrow=none;dashed=1;html=1;rounded=0;" parent="1" target="1rYxMRe_m1wBD9LGmmaj-10" edge="1">
          <mxGeometry width="50" height="50" relative="1" as="geometry">
            <mxPoint x="77" y="680" as="sourcePoint" />
            <mxPoint x="79" y="170" as="targetPoint" />
          </mxGeometry>
        </mxCell>
        <mxCell id="1rYxMRe_m1wBD9LGmmaj-10" value="Manager / Employee" style="shape=umlActor;verticalLabelPosition=bottom;verticalAlign=top;html=1;" parent="1" vertex="1">
          <mxGeometry x="62" y="65" width="30" height="60" as="geometry" />
        </mxCell>
        <mxCell id="1rYxMRe_m1wBD9LGmmaj-16" value="Database" style="shape=umlLifeline;perimeter=lifelinePerimeter;container=1;collapsible=0;recursiveResize=0;rounded=0;shadow=0;strokeWidth=1;" parent="1" vertex="1">
          <mxGeometry x="725" y="79" width="111" height="601" as="geometry" />
        </mxCell>
        <mxCell id="TgxHGiuypaRiIa6PDOnM-19" value="alt find all parking news" style="shape=umlFrame;whiteSpace=wrap;html=1;width=167;height=19;" parent="1rYxMRe_m1wBD9LGmmaj-16" vertex="1">
          <mxGeometry x="-690" y="240" width="790" height="260" as="geometry" />
        </mxCell>
        <mxCell id="TgxHGiuypaRiIa6PDOnM-5" value="" style="html=1;points=[];perimeter=orthogonalPerimeter;" parent="1rYxMRe_m1wBD9LGmmaj-16" vertex="1">
          <mxGeometry x="50.5" y="198" width="10" height="202" as="geometry" />
        </mxCell>
        <mxCell id="TgxHGiuypaRiIa6PDOnM-27" value="[Not found&amp;nbsp;&lt;br&gt;&amp;nbsp;Parking News List]" style="text;html=1;strokeColor=none;fillColor=none;align=center;verticalAlign=middle;whiteSpace=wrap;rounded=0;" parent="1rYxMRe_m1wBD9LGmmaj-16" vertex="1">
          <mxGeometry x="-646" y="262" width="116" height="30" as="geometry" />
        </mxCell>
        <mxCell id="TgxHGiuypaRiIa6PDOnM-28" value="[Found&amp;nbsp;&lt;br&gt;&amp;nbsp;Parking News List]" style="text;html=1;strokeColor=none;fillColor=none;align=center;verticalAlign=middle;whiteSpace=wrap;rounded=0;" parent="1rYxMRe_m1wBD9LGmmaj-16" vertex="1">
          <mxGeometry x="-642" y="378" width="116" height="30" as="geometry" />
        </mxCell>
        <mxCell id="TgxHGiuypaRiIa6PDOnM-29" value="" style="endArrow=none;dashed=1;html=1;rounded=0;exitX=0.001;exitY=0.425;exitDx=0;exitDy=0;exitPerimeter=0;entryX=0.999;entryY=0.423;entryDx=0;entryDy=0;entryPerimeter=0;" parent="1rYxMRe_m1wBD9LGmmaj-16" edge="1">
          <mxGeometry width="50" height="50" relative="1" as="geometry">
            <mxPoint x="-689.2100000000003" y="359.4999999999999" as="sourcePoint" />
            <mxPoint x="99.21000000000004" y="358.98" as="targetPoint" />
          </mxGeometry>
        </mxCell>
        <mxCell id="1rYxMRe_m1wBD9LGmmaj-12" value="View" style="shape=umlLifeline;perimeter=lifelinePerimeter;container=1;collapsible=0;recursiveResize=0;rounded=0;shadow=0;strokeWidth=1;" parent="1" vertex="1">
          <mxGeometry x="169" y="80" width="100" height="596" as="geometry" />
        </mxCell>
        <mxCell id="TgxHGiuypaRiIa6PDOnM-1" value="" style="html=1;points=[];perimeter=orthogonalPerimeter;" parent="1rYxMRe_m1wBD9LGmmaj-12" vertex="1">
          <mxGeometry x="45" y="117" width="10" height="423" as="geometry" />
        </mxCell>
        <mxCell id="1rYxMRe_m1wBD9LGmmaj-13" value=":ParkingNewsController" style="shape=umlLifeline;perimeter=lifelinePerimeter;container=1;collapsible=0;recursiveResize=0;rounded=0;shadow=0;strokeWidth=1;" parent="1" vertex="1">
          <mxGeometry x="288" y="79" width="140" height="598" as="geometry" />
        </mxCell>
        <mxCell id="TgxHGiuypaRiIa6PDOnM-2" value="" style="html=1;points=[];perimeter=orthogonalPerimeter;" parent="1rYxMRe_m1wBD9LGmmaj-13" vertex="1">
          <mxGeometry x="65" y="139" width="10" height="323" as="geometry" />
        </mxCell>
        <mxCell id="TgxHGiuypaRiIa6PDOnM-7" value="3. findAll()" style="html=1;verticalAlign=bottom;endArrow=block;exitX=1.011;exitY=0.49;exitDx=0;exitDy=0;exitPerimeter=0;entryX=0.454;entryY=0.299;entryDx=0;entryDy=0;entryPerimeter=0;" parent="1rYxMRe_m1wBD9LGmmaj-13" edge="1">
          <mxGeometry x="0.0909" width="80" relative="1" as="geometry">
            <mxPoint x="75.11000000000013" y="161.19999999999993" as="sourcePoint" />
            <mxPoint x="204.01999999999998" y="161.34000000000003" as="targetPoint" />
            <mxPoint as="offset" />
          </mxGeometry>
        </mxCell>
        <mxCell id="TgxHGiuypaRiIa6PDOnM-32" value="12. Return result" style="html=1;verticalAlign=bottom;endArrow=open;dashed=1;endSize=8;exitX=-0.042;exitY=1.001;exitDx=0;exitDy=0;exitPerimeter=0;entryX=1.1;entryY=0.819;entryDx=0;entryDy=0;entryPerimeter=0;" parent="1rYxMRe_m1wBD9LGmmaj-13" edge="1">
          <mxGeometry x="-0.114" relative="1" as="geometry">
            <mxPoint x="204.57999999999993" y="439.2819999999999" as="sourcePoint" />
            <mxPoint x="75" y="439" as="targetPoint" />
            <mxPoint as="offset" />
          </mxGeometry>
        </mxCell>
        <mxCell id="1rYxMRe_m1wBD9LGmmaj-14" value=":IParkingNewsService" style="shape=umlLifeline;perimeter=lifelinePerimeter;container=1;collapsible=0;recursiveResize=0;rounded=0;shadow=0;strokeWidth=1;" parent="1" vertex="1">
          <mxGeometry x="433" y="79" width="130" height="598" as="geometry" />
        </mxCell>
        <mxCell id="TgxHGiuypaRiIa6PDOnM-3" value="" style="html=1;points=[];perimeter=orthogonalPerimeter;" parent="1rYxMRe_m1wBD9LGmmaj-14" vertex="1">
          <mxGeometry x="60" y="158" width="10" height="282" as="geometry" />
        </mxCell>
        <mxCell id="1rYxMRe_m1wBD9LGmmaj-15" value=":IParkingNewsRepository" style="shape=umlLifeline;perimeter=lifelinePerimeter;container=1;collapsible=0;recursiveResize=0;rounded=0;shadow=0;strokeWidth=1;" parent="1" vertex="1">
          <mxGeometry x="568" y="79" width="140" height="600" as="geometry" />
        </mxCell>
        <mxCell id="TgxHGiuypaRiIa6PDOnM-4" value="" style="html=1;points=[];perimeter=orthogonalPerimeter;" parent="1rYxMRe_m1wBD9LGmmaj-15" vertex="1">
          <mxGeometry x="65" y="177" width="10" height="243" as="geometry" />
        </mxCell>
        <mxCell id="-FELui3-f-trytkd93Zj-1" value="1. Log in successfully" style="html=1;verticalAlign=bottom;endArrow=block;" parent="1" edge="1">
          <mxGeometry x="0.0441" y="-1" width="80" relative="1" as="geometry">
            <mxPoint x="78" y="199" as="sourcePoint" />
            <mxPoint x="214" y="199" as="targetPoint" />
            <mxPoint as="offset" />
          </mxGeometry>
        </mxCell>
        <mxCell id="TgxHGiuypaRiIa6PDOnM-6" value="2. findAll()" style="html=1;verticalAlign=bottom;endArrow=block;entryX=0.067;entryY=0.032;entryDx=0;entryDy=0;entryPerimeter=0;exitX=1.022;exitY=0.526;exitDx=0;exitDy=0;exitPerimeter=0;" parent="1" edge="1">
          <mxGeometry x="0.0042" y="-1" width="80" relative="1" as="geometry">
            <mxPoint x="224.22000000000003" y="220.07999999999993" as="sourcePoint" />
            <mxPoint x="353.66999999999996" y="219.56000000000006" as="targetPoint" />
            <mxPoint as="offset" />
          </mxGeometry>
        </mxCell>
        <mxCell id="TgxHGiuypaRiIa6PDOnM-11" value="7. Return null" style="html=1;verticalAlign=bottom;endArrow=open;dashed=1;endSize=8;exitX=0.042;exitY=0.509;exitDx=0;exitDy=0;exitPerimeter=0;entryX=1;entryY=0.506;entryDx=0;entryDy=0;entryPerimeter=0;" parent="1" source="TgxHGiuypaRiIa6PDOnM-4" target="TgxHGiuypaRiIa6PDOnM-3" edge="1">
          <mxGeometry x="-0.0222" relative="1" as="geometry">
            <mxPoint x="629" y="380" as="sourcePoint" />
            <mxPoint x="499" y="379" as="targetPoint" />
            <mxPoint as="offset" />
          </mxGeometry>
        </mxCell>
        <mxCell id="TgxHGiuypaRiIa6PDOnM-8" value="4. findAll()" style="html=1;verticalAlign=bottom;endArrow=block;entryX=0.07;entryY=0.005;entryDx=0;entryDy=0;entryPerimeter=0;exitX=0.997;exitY=0.073;exitDx=0;exitDy=0;exitPerimeter=0;" parent="1" source="TgxHGiuypaRiIa6PDOnM-3" target="TgxHGiuypaRiIa6PDOnM-4" edge="1">
          <mxGeometry x="0.0182" y="-1" width="80" relative="1" as="geometry">
            <mxPoint x="509" y="258" as="sourcePoint" />
            <mxPoint x="629" y="260" as="targetPoint" />
            <mxPoint as="offset" />
          </mxGeometry>
        </mxCell>
        <mxCell id="TgxHGiuypaRiIa6PDOnM-9" value="5. executeQuery()" style="html=1;verticalAlign=bottom;endArrow=block;exitX=0.954;exitY=0.281;exitDx=0;exitDy=0;exitPerimeter=0;entryX=-0.014;entryY=0.008;entryDx=0;entryDy=0;entryPerimeter=0;" parent="1" target="TgxHGiuypaRiIa6PDOnM-5" edge="1">
          <mxGeometry x="0.0909" width="80" relative="1" as="geometry">
            <mxPoint x="642.54" y="278.48" as="sourcePoint" />
            <mxPoint x="769" y="278" as="targetPoint" />
            <mxPoint as="offset" />
          </mxGeometry>
        </mxCell>
        <mxCell id="TgxHGiuypaRiIa6PDOnM-10" value="6. Return null" style="html=1;verticalAlign=bottom;endArrow=open;dashed=1;endSize=8;exitX=0.432;exitY=0.434;exitDx=0;exitDy=0;exitPerimeter=0;entryX=0.942;entryY=0.425;entryDx=0;entryDy=0;entryPerimeter=0;" parent="1" target="TgxHGiuypaRiIa6PDOnM-4" edge="1">
          <mxGeometry x="-0.114" relative="1" as="geometry">
            <mxPoint x="772.952" y="358.894" as="sourcePoint" />
            <mxPoint x="639" y="359" as="targetPoint" />
            <mxPoint as="offset" />
          </mxGeometry>
        </mxCell>
        <mxCell id="TgxHGiuypaRiIa6PDOnM-30" value="10. Return result" style="html=1;verticalAlign=bottom;endArrow=open;dashed=1;endSize=8;exitX=-0.124;exitY=0.995;exitDx=0;exitDy=0;exitPerimeter=0;" parent="1" source="TgxHGiuypaRiIa6PDOnM-5" edge="1">
          <mxGeometry x="-0.114" relative="1" as="geometry">
            <mxPoint x="772.952" y="480.004" as="sourcePoint" />
            <mxPoint x="643" y="478" as="targetPoint" />
            <mxPoint as="offset" />
          </mxGeometry>
        </mxCell>
        <mxCell id="TgxHGiuypaRiIa6PDOnM-34" value="14. Display view" style="html=1;verticalAlign=bottom;endArrow=open;dashed=1;endSize=8;exitX=-0.267;exitY=0.994;exitDx=0;exitDy=0;exitPerimeter=0;" parent="1" source="TgxHGiuypaRiIa6PDOnM-1" edge="1">
          <mxGeometry x="-0.1124" relative="1" as="geometry">
            <mxPoint x="212" y="618" as="sourcePoint" />
            <mxPoint x="79" y="618" as="targetPoint" />
            <mxPoint as="offset" />
          </mxGeometry>
        </mxCell>
        <mxCell id="TgxHGiuypaRiIa6PDOnM-31" value="11. Return result" style="html=1;verticalAlign=bottom;endArrow=open;dashed=1;endSize=8;exitX=-0.131;exitY=0.996;exitDx=0;exitDy=0;exitPerimeter=0;entryX=1.042;entryY=0.922;entryDx=0;entryDy=0;entryPerimeter=0;" parent="1" source="TgxHGiuypaRiIa6PDOnM-4" target="TgxHGiuypaRiIa6PDOnM-3" edge="1">
          <mxGeometry x="-0.114" relative="1" as="geometry">
            <mxPoint x="633" y="500" as="sourcePoint" />
            <mxPoint x="503" y="500" as="targetPoint" />
            <mxPoint as="offset" />
          </mxGeometry>
        </mxCell>
        <mxCell id="TgxHGiuypaRiIa6PDOnM-12" value="8. Return null" style="html=1;verticalAlign=bottom;endArrow=open;dashed=1;endSize=8;entryX=0.929;entryY=0.467;entryDx=0;entryDy=0;entryPerimeter=0;exitX=0.468;exitY=0.484;exitDx=0;exitDy=0;exitPerimeter=0;" parent="1" edge="1">
          <mxGeometry relative="1" as="geometry">
            <mxPoint x="493.8399999999999" y="398.432" as="sourcePoint" />
            <mxPoint x="362.28999999999996" y="398.841" as="targetPoint" />
            <mxPoint as="offset" />
          </mxGeometry>
        </mxCell>
        <mxCell id="TgxHGiuypaRiIa6PDOnM-18" value="9. Return not found view" style="html=1;verticalAlign=bottom;endArrow=open;dashed=1;endSize=8;exitX=-0.083;exitY=0.621;exitDx=0;exitDy=0;exitPerimeter=0;entryX=0.817;entryY=0.525;entryDx=0;entryDy=0;entryPerimeter=0;" parent="1" source="TgxHGiuypaRiIa6PDOnM-2" target="TgxHGiuypaRiIa6PDOnM-1" edge="1">
          <mxGeometry x="-0.0281" relative="1" as="geometry">
            <mxPoint x="342" y="420" as="sourcePoint" />
            <mxPoint x="232" y="420" as="targetPoint" />
            <mxPoint as="offset" />
          </mxGeometry>
        </mxCell>
        <mxCell id="TgxHGiuypaRiIa6PDOnM-33" value="13. Return valid view" style="html=1;verticalAlign=bottom;endArrow=open;dashed=1;endSize=8;entryX=0.564;entryY=0.772;entryDx=0;entryDy=0;entryPerimeter=0;exitX=0.083;exitY=0.994;exitDx=0;exitDy=0;exitPerimeter=0;" parent="1" source="TgxHGiuypaRiIa6PDOnM-2" target="1rYxMRe_m1wBD9LGmmaj-12" edge="1">
          <mxGeometry x="0.0067" y="1" relative="1" as="geometry">
            <mxPoint x="349" y="540" as="sourcePoint" />
            <mxPoint x="219" y="538" as="targetPoint" />
            <mxPoint as="offset" />
          </mxGeometry>
        </mxCell>
      </root>
    </mxGraphModel>
  </diagram>
  <diagram name="3.1.1. Do Mock Test" id="KcUJQZAcvmpExQ47Rsoi">
    <mxGraphModel dx="1780" dy="741" grid="0" gridSize="10" guides="1" tooltips="1" connect="1" arrows="1" fold="1" page="1" pageScale="1" pageWidth="850" pageHeight="1100" math="0" shadow="0">
      <root>
        <mxCell id="JkJDmiGCP3K7-MOOkzHt-0" />
        <mxCell id="JkJDmiGCP3K7-MOOkzHt-1" parent="JkJDmiGCP3K7-MOOkzHt-0" />
        <mxCell id="JkJDmiGCP3K7-MOOkzHt-2" value="" style="endArrow=none;dashed=1;html=1;rounded=0;" edge="1" parent="JkJDmiGCP3K7-MOOkzHt-1" target="JkJDmiGCP3K7-MOOkzHt-3">
          <mxGeometry width="50" height="50" relative="1" as="geometry">
            <mxPoint x="77" y="812" as="sourcePoint" />
            <mxPoint x="79" y="170" as="targetPoint" />
          </mxGeometry>
        </mxCell>
        <mxCell id="JkJDmiGCP3K7-MOOkzHt-3" value="User" style="shape=umlActor;verticalLabelPosition=bottom;verticalAlign=top;html=1;" vertex="1" parent="JkJDmiGCP3K7-MOOkzHt-1">
          <mxGeometry x="62" y="65" width="30" height="60" as="geometry" />
        </mxCell>
        <mxCell id="JkJDmiGCP3K7-MOOkzHt-4" value="Database" style="shape=umlLifeline;perimeter=lifelinePerimeter;container=1;collapsible=0;recursiveResize=0;rounded=0;shadow=0;strokeWidth=1;" vertex="1" parent="JkJDmiGCP3K7-MOOkzHt-1">
          <mxGeometry x="853" y="78.5" width="129" height="740.5" as="geometry" />
        </mxCell>
        <mxCell id="JkJDmiGCP3K7-MOOkzHt-5" value="alt find mock test" style="shape=umlFrame;whiteSpace=wrap;html=1;width=189;height=25;" vertex="1" parent="JkJDmiGCP3K7-MOOkzHt-4">
          <mxGeometry x="-846" y="531" width="975" height="103" as="geometry" />
        </mxCell>
        <mxCell id="JkJDmiGCP3K7-MOOkzHt-6" value="" style="html=1;points=[];perimeter=orthogonalPerimeter;" vertex="1" parent="JkJDmiGCP3K7-MOOkzHt-4">
          <mxGeometry x="50.5" y="198" width="10" height="352" as="geometry" />
        </mxCell>
        <mxCell id="JkJDmiGCP3K7-MOOkzHt-26" value="12. Return result" style="html=1;verticalAlign=bottom;endArrow=open;dashed=1;endSize=8;exitX=-0.124;exitY=0.995;exitDx=0;exitDy=0;exitPerimeter=0;entryX=0.791;entryY=0.612;entryDx=0;entryDy=0;entryPerimeter=0;" edge="1" parent="JkJDmiGCP3K7-MOOkzHt-4">
          <mxGeometry x="-0.114" relative="1" as="geometry">
            <mxPoint x="49.26000000000022" y="548.99" as="sourcePoint" />
            <mxPoint x="-97.71399999999994" y="549.1199999999999" as="targetPoint" />
            <mxPoint as="offset" />
          </mxGeometry>
        </mxCell>
        <mxCell id="m53wNYZ64Z6RudP_OdWP-13" value="[Exist valid mock test]" style="text;html=1;strokeColor=none;fillColor=none;align=center;verticalAlign=middle;whiteSpace=wrap;rounded=0;" vertex="1" parent="JkJDmiGCP3K7-MOOkzHt-4">
          <mxGeometry x="-769" y="564.5" width="120" height="30" as="geometry" />
        </mxCell>
        <mxCell id="JkJDmiGCP3K7-MOOkzHt-10" value="View" style="shape=umlLifeline;perimeter=lifelinePerimeter;container=1;collapsible=0;recursiveResize=0;rounded=0;shadow=0;strokeWidth=1;" vertex="1" parent="JkJDmiGCP3K7-MOOkzHt-1">
          <mxGeometry x="169" y="80" width="100" height="738" as="geometry" />
        </mxCell>
        <mxCell id="JkJDmiGCP3K7-MOOkzHt-11" value="" style="html=1;points=[];perimeter=orthogonalPerimeter;" vertex="1" parent="JkJDmiGCP3K7-MOOkzHt-10">
          <mxGeometry x="45" y="117" width="10" height="554" as="geometry" />
        </mxCell>
        <mxCell id="JkJDmiGCP3K7-MOOkzHt-12" value=":MockTestQuestionController" style="shape=umlLifeline;perimeter=lifelinePerimeter;container=1;collapsible=0;recursiveResize=0;rounded=0;shadow=0;strokeWidth=1;" vertex="1" parent="JkJDmiGCP3K7-MOOkzHt-1">
          <mxGeometry x="299" y="81" width="163" height="742" as="geometry" />
        </mxCell>
        <mxCell id="JkJDmiGCP3K7-MOOkzHt-13" value="" style="html=1;points=[];perimeter=orthogonalPerimeter;" vertex="1" parent="JkJDmiGCP3K7-MOOkzHt-12">
          <mxGeometry x="78" y="137.5" width="10" height="470.5" as="geometry" />
        </mxCell>
        <mxCell id="JkJDmiGCP3K7-MOOkzHt-14" value="3.&amp;nbsp;isExistedValidMockTest()" style="html=1;verticalAlign=bottom;endArrow=block;entryX=-0.1;entryY=0.009;entryDx=0;entryDy=0;entryPerimeter=0;" edge="1" parent="JkJDmiGCP3K7-MOOkzHt-12" target="JkJDmiGCP3K7-MOOkzHt-17">
          <mxGeometry x="0.0909" width="80" relative="1" as="geometry">
            <mxPoint x="90" y="160" as="sourcePoint" />
            <mxPoint x="204" y="161" as="targetPoint" />
            <mxPoint as="offset" />
          </mxGeometry>
        </mxCell>
        <mxCell id="9ZoXZOLmryX-yl2gSvjt-0" value="alt&amp;nbsp;is existed valid mock test" style="shape=umlFrame;whiteSpace=wrap;html=1;width=189;height=25;" vertex="1" parent="JkJDmiGCP3K7-MOOkzHt-12">
          <mxGeometry x="-299" y="236" width="978" height="173" as="geometry" />
        </mxCell>
        <mxCell id="VRYe0vR-PafcA7TJGYa1-0" value="[No valid mock test]" style="text;html=1;strokeColor=none;fillColor=none;align=center;verticalAlign=middle;whiteSpace=wrap;rounded=0;" vertex="1" parent="JkJDmiGCP3K7-MOOkzHt-12">
          <mxGeometry x="-219" y="262" width="116" height="30" as="geometry" />
        </mxCell>
        <mxCell id="MyuVpchoCMR7-_yuX-Gl-0" value="" style="endArrow=none;dashed=1;html=1;rounded=0;exitX=0.002;exitY=0.568;exitDx=0;exitDy=0;exitPerimeter=0;" edge="1" parent="JkJDmiGCP3K7-MOOkzHt-12">
          <mxGeometry width="50" height="50" relative="1" as="geometry">
            <mxPoint x="-297.10799999999995" y="316.264" as="sourcePoint" />
            <mxPoint x="645" y="315" as="targetPoint" />
          </mxGeometry>
        </mxCell>
        <mxCell id="MyuVpchoCMR7-_yuX-Gl-1" value="[Exist valid mock test]" style="text;html=1;strokeColor=none;fillColor=none;align=center;verticalAlign=middle;whiteSpace=wrap;rounded=0;" vertex="1" parent="JkJDmiGCP3K7-MOOkzHt-12">
          <mxGeometry x="-220" y="329" width="120" height="30" as="geometry" />
        </mxCell>
        <mxCell id="m53wNYZ64Z6RudP_OdWP-2" value="7.1. Return valid mock test" style="html=1;verticalAlign=bottom;endArrow=open;dashed=1;endSize=8;entryX=0.942;entryY=0.425;entryDx=0;entryDy=0;entryPerimeter=0;exitX=-0.05;exitY=0.553;exitDx=0;exitDy=0;exitPerimeter=0;" edge="1" parent="JkJDmiGCP3K7-MOOkzHt-12">
          <mxGeometry x="-0.0007" y="1" relative="1" as="geometry">
            <mxPoint x="257" y="362" as="sourcePoint" />
            <mxPoint x="91.00000000000011" y="362.385" as="targetPoint" />
            <mxPoint as="offset" />
          </mxGeometry>
        </mxCell>
        <mxCell id="m53wNYZ64Z6RudP_OdWP-3" value="7.1. Return valid mock test" style="html=1;verticalAlign=bottom;endArrow=open;dashed=1;endSize=8;entryX=0.942;entryY=0.425;entryDx=0;entryDy=0;entryPerimeter=0;" edge="1" parent="JkJDmiGCP3K7-MOOkzHt-12">
          <mxGeometry x="-0.0007" y="1" relative="1" as="geometry">
            <mxPoint x="77" y="383" as="sourcePoint" />
            <mxPoint x="-74.99999999999989" y="383.385" as="targetPoint" />
            <mxPoint as="offset" />
          </mxGeometry>
        </mxCell>
        <mxCell id="m53wNYZ64Z6RudP_OdWP-14" value="16. Display view" style="html=1;verticalAlign=bottom;endArrow=open;dashed=1;endSize=8;exitX=-0.267;exitY=0.994;exitDx=0;exitDy=0;exitPerimeter=0;" edge="1" parent="JkJDmiGCP3K7-MOOkzHt-12">
          <mxGeometry x="-0.1124" relative="1" as="geometry">
            <mxPoint x="-86.67000000000007" y="309.00199999999995" as="sourcePoint" />
            <mxPoint x="-219" y="309.53999999999996" as="targetPoint" />
            <mxPoint as="offset" />
          </mxGeometry>
        </mxCell>
        <mxCell id="JkJDmiGCP3K7-MOOkzHt-16" value=":IMockTestQuestionService" style="shape=umlLifeline;perimeter=lifelinePerimeter;container=1;collapsible=0;recursiveResize=0;rounded=0;shadow=0;strokeWidth=1;" vertex="1" parent="JkJDmiGCP3K7-MOOkzHt-1">
          <mxGeometry x="485" y="80" width="162" height="743" as="geometry" />
        </mxCell>
        <mxCell id="JkJDmiGCP3K7-MOOkzHt-17" value="" style="html=1;points=[];perimeter=orthogonalPerimeter;" vertex="1" parent="JkJDmiGCP3K7-MOOkzHt-16">
          <mxGeometry x="76" y="158.25" width="10" height="428.75" as="geometry" />
        </mxCell>
        <mxCell id="PQ0qtdDQzayh815pM6Lf-14" value="6.1. Return no valid mock test" style="html=1;verticalAlign=bottom;endArrow=open;dashed=1;endSize=8;exitX=0.042;exitY=0.509;exitDx=0;exitDy=0;exitPerimeter=0;entryX=1;entryY=0.506;entryDx=0;entryDy=0;entryPerimeter=0;" edge="1" parent="JkJDmiGCP3K7-MOOkzHt-16">
          <mxGeometry x="-0.0223" relative="1" as="geometry">
            <mxPoint x="257.7500000000001" y="269.797" as="sourcePoint" />
            <mxPoint x="81.83000000000004" y="270.552" as="targetPoint" />
            <mxPoint as="offset" />
          </mxGeometry>
        </mxCell>
        <mxCell id="PQ0qtdDQzayh815pM6Lf-15" value="6.1. Return no valid mock test" style="html=1;verticalAlign=bottom;endArrow=open;dashed=1;endSize=8;entryX=0.942;entryY=0.425;entryDx=0;entryDy=0;entryPerimeter=0;" edge="1" parent="JkJDmiGCP3K7-MOOkzHt-16">
          <mxGeometry x="-0.0007" y="1" relative="1" as="geometry">
            <mxPoint x="419" y="259" as="sourcePoint" />
            <mxPoint x="266.7500000000001" y="259.385" as="targetPoint" />
            <mxPoint as="offset" />
          </mxGeometry>
        </mxCell>
        <mxCell id="PQ0qtdDQzayh815pM6Lf-16" value="6.1. Return no valid mock test" style="html=1;verticalAlign=bottom;endArrow=open;dashed=1;endSize=8;exitX=0.233;exitY=0.571;exitDx=0;exitDy=0;exitPerimeter=0;" edge="1" parent="JkJDmiGCP3K7-MOOkzHt-16">
          <mxGeometry relative="1" as="geometry">
            <mxPoint x="74.15999999999997" y="285.88199999999995" as="sourcePoint" />
            <mxPoint x="-95" y="284" as="targetPoint" />
            <mxPoint as="offset" />
          </mxGeometry>
        </mxCell>
        <mxCell id="PQ0qtdDQzayh815pM6Lf-17" value="6.1. Return no valid mock test" style="html=1;verticalAlign=bottom;endArrow=open;dashed=1;endSize=8;exitX=-0.083;exitY=0.621;exitDx=0;exitDy=0;exitPerimeter=0;entryX=0.817;entryY=0.525;entryDx=0;entryDy=0;entryPerimeter=0;" edge="1" parent="JkJDmiGCP3K7-MOOkzHt-16">
          <mxGeometry x="-0.027" relative="1" as="geometry">
            <mxPoint x="-112.99999999999994" y="300.693" as="sourcePoint" />
            <mxPoint x="-260.9999999999999" y="301.68500000000006" as="targetPoint" />
            <mxPoint as="offset" />
          </mxGeometry>
        </mxCell>
        <mxCell id="m53wNYZ64Z6RudP_OdWP-1" value="7.1. Return valid mock test" style="html=1;verticalAlign=bottom;endArrow=open;dashed=1;endSize=8;entryX=0.942;entryY=0.425;entryDx=0;entryDy=0;entryPerimeter=0;" edge="1" parent="JkJDmiGCP3K7-MOOkzHt-16" source="JkJDmiGCP3K7-MOOkzHt-19">
          <mxGeometry x="-0.0007" y="1" relative="1" as="geometry">
            <mxPoint x="243.5" y="349" as="sourcePoint" />
            <mxPoint x="89.00000000000011" y="349.385" as="targetPoint" />
            <mxPoint as="offset" />
          </mxGeometry>
        </mxCell>
        <mxCell id="m53wNYZ64Z6RudP_OdWP-8" value="9. findMockTest()" style="html=1;verticalAlign=bottom;endArrow=block;entryX=-0.1;entryY=0.009;entryDx=0;entryDy=0;entryPerimeter=0;" edge="1" parent="JkJDmiGCP3K7-MOOkzHt-16">
          <mxGeometry x="0.0909" width="80" relative="1" as="geometry">
            <mxPoint x="-96.22000000000003" y="473" as="sourcePoint" />
            <mxPoint x="74.77999999999997" y="472" as="targetPoint" />
            <mxPoint as="offset" />
          </mxGeometry>
        </mxCell>
        <mxCell id="m53wNYZ64Z6RudP_OdWP-9" value="8. findMockTest()" style="html=1;verticalAlign=bottom;endArrow=block;exitX=1.022;exitY=0.526;exitDx=0;exitDy=0;exitPerimeter=0;" edge="1" parent="JkJDmiGCP3K7-MOOkzHt-16">
          <mxGeometry x="0.0042" y="-1" width="80" relative="1" as="geometry">
            <mxPoint x="-261" y="451.0799999999999" as="sourcePoint" />
            <mxPoint x="-108.22000000000003" y="451" as="targetPoint" />
            <mxPoint as="offset" />
          </mxGeometry>
        </mxCell>
        <mxCell id="m53wNYZ64Z6RudP_OdWP-10" value="10. findMockTest()" style="html=1;verticalAlign=bottom;endArrow=block;entryX=0.15;entryY=0.024;entryDx=0;entryDy=0;entryPerimeter=0;exitX=0.997;exitY=0.073;exitDx=0;exitDy=0;exitPerimeter=0;" edge="1" parent="JkJDmiGCP3K7-MOOkzHt-16">
          <mxGeometry x="0.0216" y="-1" width="80" relative="1" as="geometry">
            <mxPoint x="85.77999999999997" y="495" as="sourcePoint" />
            <mxPoint x="256.78" y="495" as="targetPoint" />
            <mxPoint as="offset" />
          </mxGeometry>
        </mxCell>
        <mxCell id="m53wNYZ64Z6RudP_OdWP-11" value="11. executeQuery()" style="html=1;verticalAlign=bottom;endArrow=block;entryX=-0.014;entryY=0.008;entryDx=0;entryDy=0;entryPerimeter=0;" edge="1" parent="JkJDmiGCP3K7-MOOkzHt-16">
          <mxGeometry x="0.0909" width="80" relative="1" as="geometry">
            <mxPoint x="260.78" y="510" as="sourcePoint" />
            <mxPoint x="417.78" y="510" as="targetPoint" />
            <mxPoint as="offset" />
          </mxGeometry>
        </mxCell>
        <mxCell id="JkJDmiGCP3K7-MOOkzHt-18" value=":IMockTestQuestionRepository" style="shape=umlLifeline;perimeter=lifelinePerimeter;container=1;collapsible=0;recursiveResize=0;rounded=0;shadow=0;strokeWidth=1;" vertex="1" parent="JkJDmiGCP3K7-MOOkzHt-1">
          <mxGeometry x="659" y="80" width="173" height="740" as="geometry" />
        </mxCell>
        <mxCell id="JkJDmiGCP3K7-MOOkzHt-19" value="" style="html=1;points=[];perimeter=orthogonalPerimeter;" vertex="1" parent="JkJDmiGCP3K7-MOOkzHt-18">
          <mxGeometry x="81.5" y="176.5" width="10" height="391.5" as="geometry" />
        </mxCell>
        <mxCell id="m53wNYZ64Z6RudP_OdWP-0" value="7.1. Return valid mock test" style="html=1;verticalAlign=bottom;endArrow=open;dashed=1;endSize=8;entryX=0.942;entryY=0.425;entryDx=0;entryDy=0;entryPerimeter=0;" edge="1" parent="JkJDmiGCP3K7-MOOkzHt-18">
          <mxGeometry x="-0.0007" y="1" relative="1" as="geometry">
            <mxPoint x="246" y="340" as="sourcePoint" />
            <mxPoint x="91.50000000000011" y="340.385" as="targetPoint" />
            <mxPoint as="offset" />
          </mxGeometry>
        </mxCell>
        <mxCell id="JkJDmiGCP3K7-MOOkzHt-20" value="1. Click testing start button" style="html=1;verticalAlign=bottom;endArrow=block;" edge="1" parent="JkJDmiGCP3K7-MOOkzHt-1">
          <mxGeometry x="-0.0735" y="4" width="80" relative="1" as="geometry">
            <mxPoint x="78" y="199" as="sourcePoint" />
            <mxPoint x="214" y="199" as="targetPoint" />
            <mxPoint as="offset" />
          </mxGeometry>
        </mxCell>
        <mxCell id="JkJDmiGCP3K7-MOOkzHt-21" value="2.&amp;nbsp;isExistedValidMockTest()" style="html=1;verticalAlign=bottom;endArrow=block;exitX=1.022;exitY=0.526;exitDx=0;exitDy=0;exitPerimeter=0;" edge="1" parent="JkJDmiGCP3K7-MOOkzHt-1">
          <mxGeometry x="0.0042" y="-1" width="80" relative="1" as="geometry">
            <mxPoint x="224.22000000000003" y="220.07999999999993" as="sourcePoint" />
            <mxPoint x="377" y="220" as="targetPoint" />
            <mxPoint as="offset" />
          </mxGeometry>
        </mxCell>
        <mxCell id="JkJDmiGCP3K7-MOOkzHt-23" value="4.&amp;nbsp;isExistedValidMockTest()" style="html=1;verticalAlign=bottom;endArrow=block;entryX=0.15;entryY=0.024;entryDx=0;entryDy=0;entryPerimeter=0;exitX=0.997;exitY=0.073;exitDx=0;exitDy=0;exitPerimeter=0;" edge="1" parent="JkJDmiGCP3K7-MOOkzHt-1" source="JkJDmiGCP3K7-MOOkzHt-17" target="JkJDmiGCP3K7-MOOkzHt-19">
          <mxGeometry x="0.0216" y="-1" width="80" relative="1" as="geometry">
            <mxPoint x="644" y="257.5" as="sourcePoint" />
            <mxPoint x="764" y="259.5" as="targetPoint" />
            <mxPoint as="offset" />
          </mxGeometry>
        </mxCell>
        <mxCell id="JkJDmiGCP3K7-MOOkzHt-24" value="5. executeQuery()" style="html=1;verticalAlign=bottom;endArrow=block;entryX=-0.014;entryY=0.008;entryDx=0;entryDy=0;entryPerimeter=0;" edge="1" parent="JkJDmiGCP3K7-MOOkzHt-1" target="JkJDmiGCP3K7-MOOkzHt-6">
          <mxGeometry x="0.0909" width="80" relative="1" as="geometry">
            <mxPoint x="746" y="279" as="sourcePoint" />
            <mxPoint x="904" y="277.5" as="targetPoint" />
            <mxPoint as="offset" />
          </mxGeometry>
        </mxCell>
        <mxCell id="JkJDmiGCP3K7-MOOkzHt-27" value="16. Display view" style="html=1;verticalAlign=bottom;endArrow=open;dashed=1;endSize=8;exitX=-0.267;exitY=0.994;exitDx=0;exitDy=0;exitPerimeter=0;" edge="1" parent="JkJDmiGCP3K7-MOOkzHt-1">
          <mxGeometry x="-0.1124" relative="1" as="geometry">
            <mxPoint x="211.32999999999993" y="749.462" as="sourcePoint" />
            <mxPoint x="79" y="750" as="targetPoint" />
            <mxPoint as="offset" />
          </mxGeometry>
        </mxCell>
        <mxCell id="JkJDmiGCP3K7-MOOkzHt-28" value="13. Return result" style="html=1;verticalAlign=bottom;endArrow=open;dashed=1;endSize=8;exitX=-0.131;exitY=0.996;exitDx=0;exitDy=0;exitPerimeter=0;entryX=1.042;entryY=0.922;entryDx=0;entryDy=0;entryPerimeter=0;" edge="1" parent="JkJDmiGCP3K7-MOOkzHt-1">
          <mxGeometry x="-0.114" relative="1" as="geometry">
            <mxPoint x="739.19" y="648.528" as="sourcePoint" />
            <mxPoint x="565.4200000000001" y="648.254" as="targetPoint" />
            <mxPoint as="offset" />
          </mxGeometry>
        </mxCell>
        <mxCell id="JkJDmiGCP3K7-MOOkzHt-31" value="15. Return valid view" style="html=1;verticalAlign=bottom;endArrow=open;dashed=1;endSize=8;entryX=0.564;entryY=0.772;entryDx=0;entryDy=0;entryPerimeter=0;exitX=0.083;exitY=0.994;exitDx=0;exitDy=0;exitPerimeter=0;" edge="1" parent="JkJDmiGCP3K7-MOOkzHt-1">
          <mxGeometry x="0.0067" y="1" relative="1" as="geometry">
            <mxPoint x="371.8299999999999" y="688.5619999999999" as="sourcePoint" />
            <mxPoint x="225.4000000000001" y="690.1120000000001" as="targetPoint" />
            <mxPoint as="offset" />
          </mxGeometry>
        </mxCell>
        <mxCell id="JkJDmiGCP3K7-MOOkzHt-15" value="14. Return result" style="html=1;verticalAlign=bottom;endArrow=open;dashed=1;endSize=8;entryX=0.967;entryY=0.92;entryDx=0;entryDy=0;entryPerimeter=0;" edge="1" parent="JkJDmiGCP3K7-MOOkzHt-1">
          <mxGeometry x="-0.114" relative="1" as="geometry">
            <mxPoint x="555" y="664.6600000000001" as="sourcePoint" />
            <mxPoint x="380.6700000000001" y="664.6600000000001" as="targetPoint" />
            <mxPoint as="offset" />
          </mxGeometry>
        </mxCell>
      </root>
    </mxGraphModel>
  </diagram>
  <diagram name="4.1.View Detail Speaking Question" id="ieyCUr4iUC8rOzJQnmXN">
    <mxGraphModel dx="1038" dy="433" grid="0" gridSize="10" guides="1" tooltips="1" connect="1" arrows="1" fold="1" page="1" pageScale="1" pageWidth="850" pageHeight="1100" math="0" shadow="0">
      <root>
        <mxCell id="OjYtr77PaSfIZhXXzUP2-0" />
        <mxCell id="OjYtr77PaSfIZhXXzUP2-1" parent="OjYtr77PaSfIZhXXzUP2-0" />
        <mxCell id="OjYtr77PaSfIZhXXzUP2-2" value="" style="endArrow=none;dashed=1;html=1;rounded=0;" edge="1" parent="OjYtr77PaSfIZhXXzUP2-1" target="OjYtr77PaSfIZhXXzUP2-3">
          <mxGeometry width="50" height="50" relative="1" as="geometry">
            <mxPoint x="77" y="607" as="sourcePoint" />
            <mxPoint x="79" y="170" as="targetPoint" />
          </mxGeometry>
        </mxCell>
        <mxCell id="OjYtr77PaSfIZhXXzUP2-3" value="User" style="shape=umlActor;verticalLabelPosition=bottom;verticalAlign=top;html=1;" vertex="1" parent="OjYtr77PaSfIZhXXzUP2-1">
          <mxGeometry x="62" y="65" width="30" height="60" as="geometry" />
        </mxCell>
        <mxCell id="OjYtr77PaSfIZhXXzUP2-4" value="Database" style="shape=umlLifeline;perimeter=lifelinePerimeter;container=1;collapsible=0;recursiveResize=0;rounded=0;shadow=0;strokeWidth=1;" vertex="1" parent="OjYtr77PaSfIZhXXzUP2-1">
          <mxGeometry x="853" y="78.5" width="137" height="518.5" as="geometry" />
        </mxCell>
        <mxCell id="OjYtr77PaSfIZhXXzUP2-6" value="" style="html=1;points=[];perimeter=orthogonalPerimeter;" vertex="1" parent="OjYtr77PaSfIZhXXzUP2-4">
          <mxGeometry x="63.5" y="198" width="10" height="145" as="geometry" />
        </mxCell>
        <mxCell id="OjYtr77PaSfIZhXXzUP2-9" value="View" style="shape=umlLifeline;perimeter=lifelinePerimeter;container=1;collapsible=0;recursiveResize=0;rounded=0;shadow=0;strokeWidth=1;" vertex="1" parent="OjYtr77PaSfIZhXXzUP2-1">
          <mxGeometry x="169" y="80" width="100" height="517" as="geometry" />
        </mxCell>
        <mxCell id="OjYtr77PaSfIZhXXzUP2-10" value="" style="html=1;points=[];perimeter=orthogonalPerimeter;" vertex="1" parent="OjYtr77PaSfIZhXXzUP2-9">
          <mxGeometry x="45" y="117" width="10" height="323" as="geometry" />
        </mxCell>
        <mxCell id="OjYtr77PaSfIZhXXzUP2-11" value=":SpeakingQuestionController" style="shape=umlLifeline;perimeter=lifelinePerimeter;container=1;collapsible=0;recursiveResize=0;rounded=0;shadow=0;strokeWidth=1;" vertex="1" parent="OjYtr77PaSfIZhXXzUP2-1">
          <mxGeometry x="299" y="79" width="160" height="521" as="geometry" />
        </mxCell>
        <mxCell id="OjYtr77PaSfIZhXXzUP2-12" value="" style="html=1;points=[];perimeter=orthogonalPerimeter;" vertex="1" parent="OjYtr77PaSfIZhXXzUP2-11">
          <mxGeometry x="78" y="137.5" width="10" height="246.5" as="geometry" />
        </mxCell>
        <mxCell id="OjYtr77PaSfIZhXXzUP2-13" value="3. findAllSpeakingQuestion()" style="html=1;verticalAlign=bottom;endArrow=block;entryX=-0.1;entryY=0.009;entryDx=0;entryDy=0;entryPerimeter=0;" edge="1" parent="OjYtr77PaSfIZhXXzUP2-11" target="OjYtr77PaSfIZhXXzUP2-22">
          <mxGeometry x="0.0909" width="80" relative="1" as="geometry">
            <mxPoint x="90" y="160" as="sourcePoint" />
            <mxPoint x="204" y="161" as="targetPoint" />
            <mxPoint as="offset" />
          </mxGeometry>
        </mxCell>
        <mxCell id="OjYtr77PaSfIZhXXzUP2-14" value="alt&amp;nbsp;find speaking question" style="shape=umlFrame;whiteSpace=wrap;html=1;width=189;height=25;" vertex="1" parent="OjYtr77PaSfIZhXXzUP2-11">
          <mxGeometry x="-299" y="236" width="984" height="173" as="geometry" />
        </mxCell>
        <mxCell id="OjYtr77PaSfIZhXXzUP2-15" value="[Not found quuestions]" style="text;html=1;strokeColor=none;fillColor=none;align=center;verticalAlign=middle;whiteSpace=wrap;rounded=0;" vertex="1" parent="OjYtr77PaSfIZhXXzUP2-11">
          <mxGeometry x="-222" y="262" width="126" height="30" as="geometry" />
        </mxCell>
        <mxCell id="OjYtr77PaSfIZhXXzUP2-16" value="" style="endArrow=none;dashed=1;html=1;rounded=0;exitX=0.002;exitY=0.568;exitDx=0;exitDy=0;exitPerimeter=0;entryX=0.999;entryY=0.457;entryDx=0;entryDy=0;entryPerimeter=0;" edge="1" parent="OjYtr77PaSfIZhXXzUP2-11" target="OjYtr77PaSfIZhXXzUP2-14">
          <mxGeometry width="50" height="50" relative="1" as="geometry">
            <mxPoint x="-297.10799999999995" y="316.264" as="sourcePoint" />
            <mxPoint x="645" y="315" as="targetPoint" />
          </mxGeometry>
        </mxCell>
        <mxCell id="OjYtr77PaSfIZhXXzUP2-17" value="[Found questions]" style="text;html=1;strokeColor=none;fillColor=none;align=center;verticalAlign=middle;whiteSpace=wrap;rounded=0;" vertex="1" parent="OjYtr77PaSfIZhXXzUP2-11">
          <mxGeometry x="-220" y="329" width="120" height="30" as="geometry" />
        </mxCell>
        <mxCell id="OjYtr77PaSfIZhXXzUP2-18" value="7.1.Return result" style="html=1;verticalAlign=bottom;endArrow=open;dashed=1;endSize=8;entryX=0.942;entryY=0.425;entryDx=0;entryDy=0;entryPerimeter=0;exitX=-0.05;exitY=0.553;exitDx=0;exitDy=0;exitPerimeter=0;" edge="1" parent="OjYtr77PaSfIZhXXzUP2-11">
          <mxGeometry x="-0.0007" y="1" relative="1" as="geometry">
            <mxPoint x="257" y="362" as="sourcePoint" />
            <mxPoint x="91.00000000000011" y="362.385" as="targetPoint" />
            <mxPoint as="offset" />
          </mxGeometry>
        </mxCell>
        <mxCell id="OjYtr77PaSfIZhXXzUP2-19" value="7.1.Return result" style="html=1;verticalAlign=bottom;endArrow=open;dashed=1;endSize=8;entryX=0.942;entryY=0.425;entryDx=0;entryDy=0;entryPerimeter=0;" edge="1" parent="OjYtr77PaSfIZhXXzUP2-11">
          <mxGeometry x="-0.0007" y="1" relative="1" as="geometry">
            <mxPoint x="77" y="383" as="sourcePoint" />
            <mxPoint x="-74.99999999999989" y="383.385" as="targetPoint" />
            <mxPoint as="offset" />
          </mxGeometry>
        </mxCell>
        <mxCell id="OjYtr77PaSfIZhXXzUP2-21" value=":ISpeakingQuestionService" style="shape=umlLifeline;perimeter=lifelinePerimeter;container=1;collapsible=0;recursiveResize=0;rounded=0;shadow=0;strokeWidth=1;" vertex="1" parent="OjYtr77PaSfIZhXXzUP2-1">
          <mxGeometry x="485" y="80" width="162" height="519" as="geometry" />
        </mxCell>
        <mxCell id="OjYtr77PaSfIZhXXzUP2-22" value="" style="html=1;points=[];perimeter=orthogonalPerimeter;" vertex="1" parent="OjYtr77PaSfIZhXXzUP2-21">
          <mxGeometry x="76" y="158.25" width="10" height="201.75" as="geometry" />
        </mxCell>
        <mxCell id="OjYtr77PaSfIZhXXzUP2-23" value="6.1. Return null" style="html=1;verticalAlign=bottom;endArrow=open;dashed=1;endSize=8;exitX=0.042;exitY=0.509;exitDx=0;exitDy=0;exitPerimeter=0;entryX=1;entryY=0.506;entryDx=0;entryDy=0;entryPerimeter=0;" edge="1" parent="OjYtr77PaSfIZhXXzUP2-21">
          <mxGeometry x="-0.0223" relative="1" as="geometry">
            <mxPoint x="257.7500000000001" y="269.797" as="sourcePoint" />
            <mxPoint x="81.83000000000004" y="270.552" as="targetPoint" />
            <mxPoint as="offset" />
          </mxGeometry>
        </mxCell>
        <mxCell id="OjYtr77PaSfIZhXXzUP2-24" value="6.1. Return null" style="html=1;verticalAlign=bottom;endArrow=open;dashed=1;endSize=8;entryX=1.15;entryY=0.488;entryDx=0;entryDy=0;entryPerimeter=0;" edge="1" parent="OjYtr77PaSfIZhXXzUP2-21" target="OjYtr77PaSfIZhXXzUP2-33">
          <mxGeometry x="-0.0007" y="1" relative="1" as="geometry">
            <mxPoint x="431" y="259" as="sourcePoint" />
            <mxPoint x="278.7500000000001" y="259.385" as="targetPoint" />
            <mxPoint as="offset" />
          </mxGeometry>
        </mxCell>
        <mxCell id="OjYtr77PaSfIZhXXzUP2-25" value="6.1. Return null" style="html=1;verticalAlign=bottom;endArrow=open;dashed=1;endSize=8;exitX=0.233;exitY=0.571;exitDx=0;exitDy=0;exitPerimeter=0;" edge="1" parent="OjYtr77PaSfIZhXXzUP2-21">
          <mxGeometry relative="1" as="geometry">
            <mxPoint x="74.15999999999997" y="285.88199999999995" as="sourcePoint" />
            <mxPoint x="-95" y="284" as="targetPoint" />
            <mxPoint as="offset" />
          </mxGeometry>
        </mxCell>
        <mxCell id="OjYtr77PaSfIZhXXzUP2-26" value="6.1. Return null" style="html=1;verticalAlign=bottom;endArrow=open;dashed=1;endSize=8;exitX=-0.083;exitY=0.621;exitDx=0;exitDy=0;exitPerimeter=0;entryX=0.817;entryY=0.525;entryDx=0;entryDy=0;entryPerimeter=0;" edge="1" parent="OjYtr77PaSfIZhXXzUP2-21">
          <mxGeometry x="-0.027" relative="1" as="geometry">
            <mxPoint x="-112.99999999999994" y="300.693" as="sourcePoint" />
            <mxPoint x="-260.9999999999999" y="301.68500000000006" as="targetPoint" />
            <mxPoint as="offset" />
          </mxGeometry>
        </mxCell>
        <mxCell id="OjYtr77PaSfIZhXXzUP2-27" value="7.1.Return result" style="html=1;verticalAlign=bottom;endArrow=open;dashed=1;endSize=8;entryX=0.942;entryY=0.425;entryDx=0;entryDy=0;entryPerimeter=0;" edge="1" parent="OjYtr77PaSfIZhXXzUP2-21" source="OjYtr77PaSfIZhXXzUP2-33">
          <mxGeometry x="-0.0007" y="1" relative="1" as="geometry">
            <mxPoint x="243.5" y="349" as="sourcePoint" />
            <mxPoint x="89.00000000000011" y="349.385" as="targetPoint" />
            <mxPoint as="offset" />
          </mxGeometry>
        </mxCell>
        <mxCell id="OjYtr77PaSfIZhXXzUP2-32" value=":ISpeakingQuestionRepository" style="shape=umlLifeline;perimeter=lifelinePerimeter;container=1;collapsible=0;recursiveResize=0;rounded=0;shadow=0;strokeWidth=1;" vertex="1" parent="OjYtr77PaSfIZhXXzUP2-1">
          <mxGeometry x="659" y="80" width="173" height="517" as="geometry" />
        </mxCell>
        <mxCell id="OjYtr77PaSfIZhXXzUP2-33" value="" style="html=1;points=[];perimeter=orthogonalPerimeter;" vertex="1" parent="OjYtr77PaSfIZhXXzUP2-32">
          <mxGeometry x="81.5" y="170" width="10" height="183" as="geometry" />
        </mxCell>
        <mxCell id="OjYtr77PaSfIZhXXzUP2-34" value="7.1.Return result" style="html=1;verticalAlign=bottom;endArrow=open;dashed=1;endSize=8;entryX=0.817;entryY=0.929;entryDx=0;entryDy=0;entryPerimeter=0;" edge="1" parent="OjYtr77PaSfIZhXXzUP2-32" target="OjYtr77PaSfIZhXXzUP2-33">
          <mxGeometry x="-0.0007" y="1" relative="1" as="geometry">
            <mxPoint x="256" y="340" as="sourcePoint" />
            <mxPoint x="101.50000000000011" y="340.385" as="targetPoint" />
            <mxPoint as="offset" />
          </mxGeometry>
        </mxCell>
        <mxCell id="OjYtr77PaSfIZhXXzUP2-35" value="1. Click speaking category" style="html=1;verticalAlign=bottom;endArrow=block;" edge="1" parent="OjYtr77PaSfIZhXXzUP2-1">
          <mxGeometry x="-0.0735" y="4" width="80" relative="1" as="geometry">
            <mxPoint x="78" y="199" as="sourcePoint" />
            <mxPoint x="214" y="199" as="targetPoint" />
            <mxPoint as="offset" />
          </mxGeometry>
        </mxCell>
        <mxCell id="OjYtr77PaSfIZhXXzUP2-36" value="2.findAllSpeakingQuestion()" style="html=1;verticalAlign=bottom;endArrow=block;exitX=1.022;exitY=0.526;exitDx=0;exitDy=0;exitPerimeter=0;" edge="1" parent="OjYtr77PaSfIZhXXzUP2-1">
          <mxGeometry x="0.008" y="-1" width="80" relative="1" as="geometry">
            <mxPoint x="224.22000000000003" y="220.07999999999993" as="sourcePoint" />
            <mxPoint x="377" y="220" as="targetPoint" />
            <mxPoint as="offset" />
          </mxGeometry>
        </mxCell>
        <mxCell id="OjYtr77PaSfIZhXXzUP2-37" value="4. findAllSpeakingQuestion()" style="html=1;verticalAlign=bottom;endArrow=block;entryX=0.15;entryY=0.024;entryDx=0;entryDy=0;entryPerimeter=0;exitX=0.997;exitY=0.073;exitDx=0;exitDy=0;exitPerimeter=0;" edge="1" parent="OjYtr77PaSfIZhXXzUP2-1" source="OjYtr77PaSfIZhXXzUP2-22" target="OjYtr77PaSfIZhXXzUP2-33">
          <mxGeometry x="0.0216" y="-1" width="80" relative="1" as="geometry">
            <mxPoint x="644" y="257.5" as="sourcePoint" />
            <mxPoint x="764" y="259.5" as="targetPoint" />
            <mxPoint as="offset" />
          </mxGeometry>
        </mxCell>
        <mxCell id="OjYtr77PaSfIZhXXzUP2-38" value="5. executeQuery()" style="html=1;verticalAlign=bottom;endArrow=block;entryX=-0.014;entryY=0.008;entryDx=0;entryDy=0;entryPerimeter=0;" edge="1" parent="OjYtr77PaSfIZhXXzUP2-1" target="OjYtr77PaSfIZhXXzUP2-6">
          <mxGeometry x="0.0909" width="80" relative="1" as="geometry">
            <mxPoint x="751" y="278" as="sourcePoint" />
            <mxPoint x="904" y="277.5" as="targetPoint" />
            <mxPoint as="offset" />
          </mxGeometry>
        </mxCell>
        <mxCell id="OjYtr77PaSfIZhXXzUP2-39" value="8. Display view" style="html=1;verticalAlign=bottom;endArrow=open;dashed=1;endSize=8;exitX=-0.267;exitY=0.994;exitDx=0;exitDy=0;exitPerimeter=0;" edge="1" parent="OjYtr77PaSfIZhXXzUP2-1">
          <mxGeometry x="-0.1124" relative="1" as="geometry">
            <mxPoint x="211.32999999999993" y="518.462" as="sourcePoint" />
            <mxPoint x="79" y="519" as="targetPoint" />
            <mxPoint as="offset" />
          </mxGeometry>
        </mxCell>
      </root>
    </mxGraphModel>
  </diagram>
  <diagram name="5.1.View Detail Writing Question" id="1CUM2UjPguK7molKCchE">
    <mxGraphModel dx="1246" dy="519" grid="0" gridSize="10" guides="1" tooltips="1" connect="1" arrows="1" fold="1" page="1" pageScale="1" pageWidth="850" pageHeight="1100" math="0" shadow="0">
      <root>
        <mxCell id="tg8IRFTS-Eezlqzr4mQN-0" />
        <mxCell id="tg8IRFTS-Eezlqzr4mQN-1" parent="tg8IRFTS-Eezlqzr4mQN-0" />
        <mxCell id="tg8IRFTS-Eezlqzr4mQN-2" value="" style="endArrow=none;dashed=1;html=1;rounded=0;" edge="1" parent="tg8IRFTS-Eezlqzr4mQN-1" target="tg8IRFTS-Eezlqzr4mQN-3">
          <mxGeometry width="50" height="50" relative="1" as="geometry">
            <mxPoint x="77" y="607" as="sourcePoint" />
            <mxPoint x="79" y="170" as="targetPoint" />
          </mxGeometry>
        </mxCell>
        <mxCell id="tg8IRFTS-Eezlqzr4mQN-3" value="User" style="shape=umlActor;verticalLabelPosition=bottom;verticalAlign=top;html=1;" vertex="1" parent="tg8IRFTS-Eezlqzr4mQN-1">
          <mxGeometry x="62" y="65" width="30" height="60" as="geometry" />
        </mxCell>
        <mxCell id="tg8IRFTS-Eezlqzr4mQN-4" value="Database" style="shape=umlLifeline;perimeter=lifelinePerimeter;container=1;collapsible=0;recursiveResize=0;rounded=0;shadow=0;strokeWidth=1;" vertex="1" parent="tg8IRFTS-Eezlqzr4mQN-1">
          <mxGeometry x="853" y="78.5" width="137" height="518.5" as="geometry" />
        </mxCell>
        <mxCell id="tg8IRFTS-Eezlqzr4mQN-5" value="" style="html=1;points=[];perimeter=orthogonalPerimeter;" vertex="1" parent="tg8IRFTS-Eezlqzr4mQN-4">
          <mxGeometry x="63.5" y="198" width="10" height="145" as="geometry" />
        </mxCell>
        <mxCell id="tg8IRFTS-Eezlqzr4mQN-6" value="View" style="shape=umlLifeline;perimeter=lifelinePerimeter;container=1;collapsible=0;recursiveResize=0;rounded=0;shadow=0;strokeWidth=1;" vertex="1" parent="tg8IRFTS-Eezlqzr4mQN-1">
          <mxGeometry x="169" y="80" width="100" height="517" as="geometry" />
        </mxCell>
        <mxCell id="tg8IRFTS-Eezlqzr4mQN-7" value="" style="html=1;points=[];perimeter=orthogonalPerimeter;" vertex="1" parent="tg8IRFTS-Eezlqzr4mQN-6">
          <mxGeometry x="45" y="117" width="10" height="323" as="geometry" />
        </mxCell>
        <mxCell id="tg8IRFTS-Eezlqzr4mQN-8" value=":WritingQuestionController" style="shape=umlLifeline;perimeter=lifelinePerimeter;container=1;collapsible=0;recursiveResize=0;rounded=0;shadow=0;strokeWidth=1;" vertex="1" parent="tg8IRFTS-Eezlqzr4mQN-1">
          <mxGeometry x="299" y="79" width="160" height="521" as="geometry" />
        </mxCell>
        <mxCell id="tg8IRFTS-Eezlqzr4mQN-9" value="" style="html=1;points=[];perimeter=orthogonalPerimeter;" vertex="1" parent="tg8IRFTS-Eezlqzr4mQN-8">
          <mxGeometry x="78" y="137.5" width="10" height="246.5" as="geometry" />
        </mxCell>
        <mxCell id="tg8IRFTS-Eezlqzr4mQN-10" value="3. findAllWritingQuestion()" style="html=1;verticalAlign=bottom;endArrow=block;entryX=-0.1;entryY=0.009;entryDx=0;entryDy=0;entryPerimeter=0;" edge="1" parent="tg8IRFTS-Eezlqzr4mQN-8" target="tg8IRFTS-Eezlqzr4mQN-18">
          <mxGeometry x="0.0909" width="80" relative="1" as="geometry">
            <mxPoint x="90" y="160" as="sourcePoint" />
            <mxPoint x="204" y="161" as="targetPoint" />
            <mxPoint as="offset" />
          </mxGeometry>
        </mxCell>
        <mxCell id="tg8IRFTS-Eezlqzr4mQN-11" value="alt&amp;nbsp;find Wriring question" style="shape=umlFrame;whiteSpace=wrap;html=1;width=189;height=25;" vertex="1" parent="tg8IRFTS-Eezlqzr4mQN-8">
          <mxGeometry x="-299" y="236" width="984" height="173" as="geometry" />
        </mxCell>
        <mxCell id="tg8IRFTS-Eezlqzr4mQN-12" value="[Not found quuestions]" style="text;html=1;strokeColor=none;fillColor=none;align=center;verticalAlign=middle;whiteSpace=wrap;rounded=0;" vertex="1" parent="tg8IRFTS-Eezlqzr4mQN-8">
          <mxGeometry x="-222" y="262" width="126" height="30" as="geometry" />
        </mxCell>
        <mxCell id="tg8IRFTS-Eezlqzr4mQN-13" value="" style="endArrow=none;dashed=1;html=1;rounded=0;exitX=0.002;exitY=0.568;exitDx=0;exitDy=0;exitPerimeter=0;entryX=0.999;entryY=0.457;entryDx=0;entryDy=0;entryPerimeter=0;" edge="1" parent="tg8IRFTS-Eezlqzr4mQN-8" target="tg8IRFTS-Eezlqzr4mQN-11">
          <mxGeometry width="50" height="50" relative="1" as="geometry">
            <mxPoint x="-297.10799999999995" y="316.264" as="sourcePoint" />
            <mxPoint x="645" y="315" as="targetPoint" />
          </mxGeometry>
        </mxCell>
        <mxCell id="tg8IRFTS-Eezlqzr4mQN-14" value="[Found questions]" style="text;html=1;strokeColor=none;fillColor=none;align=center;verticalAlign=middle;whiteSpace=wrap;rounded=0;" vertex="1" parent="tg8IRFTS-Eezlqzr4mQN-8">
          <mxGeometry x="-220" y="329" width="120" height="30" as="geometry" />
        </mxCell>
        <mxCell id="tg8IRFTS-Eezlqzr4mQN-15" value="7.1.Return result" style="html=1;verticalAlign=bottom;endArrow=open;dashed=1;endSize=8;entryX=0.942;entryY=0.425;entryDx=0;entryDy=0;entryPerimeter=0;exitX=-0.05;exitY=0.553;exitDx=0;exitDy=0;exitPerimeter=0;" edge="1" parent="tg8IRFTS-Eezlqzr4mQN-8">
          <mxGeometry x="-0.0007" y="1" relative="1" as="geometry">
            <mxPoint x="257" y="362" as="sourcePoint" />
            <mxPoint x="91.00000000000011" y="362.385" as="targetPoint" />
            <mxPoint as="offset" />
          </mxGeometry>
        </mxCell>
        <mxCell id="tg8IRFTS-Eezlqzr4mQN-16" value="7.1.Return result" style="html=1;verticalAlign=bottom;endArrow=open;dashed=1;endSize=8;entryX=0.942;entryY=0.425;entryDx=0;entryDy=0;entryPerimeter=0;" edge="1" parent="tg8IRFTS-Eezlqzr4mQN-8">
          <mxGeometry x="-0.0007" y="1" relative="1" as="geometry">
            <mxPoint x="77" y="383" as="sourcePoint" />
            <mxPoint x="-74.99999999999989" y="383.385" as="targetPoint" />
            <mxPoint as="offset" />
          </mxGeometry>
        </mxCell>
        <mxCell id="tg8IRFTS-Eezlqzr4mQN-17" value=":IWritingQuestionService" style="shape=umlLifeline;perimeter=lifelinePerimeter;container=1;collapsible=0;recursiveResize=0;rounded=0;shadow=0;strokeWidth=1;" vertex="1" parent="tg8IRFTS-Eezlqzr4mQN-1">
          <mxGeometry x="485" y="80" width="162" height="519" as="geometry" />
        </mxCell>
        <mxCell id="tg8IRFTS-Eezlqzr4mQN-18" value="" style="html=1;points=[];perimeter=orthogonalPerimeter;" vertex="1" parent="tg8IRFTS-Eezlqzr4mQN-17">
          <mxGeometry x="76" y="158.25" width="10" height="201.75" as="geometry" />
        </mxCell>
        <mxCell id="tg8IRFTS-Eezlqzr4mQN-19" value="6.1. Return null" style="html=1;verticalAlign=bottom;endArrow=open;dashed=1;endSize=8;exitX=0.042;exitY=0.509;exitDx=0;exitDy=0;exitPerimeter=0;entryX=1;entryY=0.506;entryDx=0;entryDy=0;entryPerimeter=0;" edge="1" parent="tg8IRFTS-Eezlqzr4mQN-17">
          <mxGeometry x="-0.0223" relative="1" as="geometry">
            <mxPoint x="257.7500000000001" y="269.797" as="sourcePoint" />
            <mxPoint x="81.83000000000004" y="270.552" as="targetPoint" />
            <mxPoint as="offset" />
          </mxGeometry>
        </mxCell>
        <mxCell id="tg8IRFTS-Eezlqzr4mQN-20" value="6.1. Return null" style="html=1;verticalAlign=bottom;endArrow=open;dashed=1;endSize=8;entryX=1.15;entryY=0.488;entryDx=0;entryDy=0;entryPerimeter=0;" edge="1" parent="tg8IRFTS-Eezlqzr4mQN-17" target="tg8IRFTS-Eezlqzr4mQN-25">
          <mxGeometry x="-0.0007" y="1" relative="1" as="geometry">
            <mxPoint x="431" y="259" as="sourcePoint" />
            <mxPoint x="278.7500000000001" y="259.385" as="targetPoint" />
            <mxPoint as="offset" />
          </mxGeometry>
        </mxCell>
        <mxCell id="tg8IRFTS-Eezlqzr4mQN-21" value="6.1. Return null" style="html=1;verticalAlign=bottom;endArrow=open;dashed=1;endSize=8;exitX=0.233;exitY=0.571;exitDx=0;exitDy=0;exitPerimeter=0;" edge="1" parent="tg8IRFTS-Eezlqzr4mQN-17">
          <mxGeometry relative="1" as="geometry">
            <mxPoint x="74.15999999999997" y="285.88199999999995" as="sourcePoint" />
            <mxPoint x="-95" y="284" as="targetPoint" />
            <mxPoint as="offset" />
          </mxGeometry>
        </mxCell>
        <mxCell id="tg8IRFTS-Eezlqzr4mQN-22" value="6.1. Return null" style="html=1;verticalAlign=bottom;endArrow=open;dashed=1;endSize=8;exitX=-0.083;exitY=0.621;exitDx=0;exitDy=0;exitPerimeter=0;entryX=0.817;entryY=0.525;entryDx=0;entryDy=0;entryPerimeter=0;" edge="1" parent="tg8IRFTS-Eezlqzr4mQN-17">
          <mxGeometry x="-0.027" relative="1" as="geometry">
            <mxPoint x="-112.99999999999994" y="300.693" as="sourcePoint" />
            <mxPoint x="-260.9999999999999" y="301.68500000000006" as="targetPoint" />
            <mxPoint as="offset" />
          </mxGeometry>
        </mxCell>
        <mxCell id="tg8IRFTS-Eezlqzr4mQN-23" value="7.1.Return result" style="html=1;verticalAlign=bottom;endArrow=open;dashed=1;endSize=8;entryX=0.942;entryY=0.425;entryDx=0;entryDy=0;entryPerimeter=0;" edge="1" parent="tg8IRFTS-Eezlqzr4mQN-17" source="tg8IRFTS-Eezlqzr4mQN-25">
          <mxGeometry x="-0.0007" y="1" relative="1" as="geometry">
            <mxPoint x="243.5" y="349" as="sourcePoint" />
            <mxPoint x="89.00000000000011" y="349.385" as="targetPoint" />
            <mxPoint as="offset" />
          </mxGeometry>
        </mxCell>
        <mxCell id="tg8IRFTS-Eezlqzr4mQN-24" value=":IWritingQuestionRepository" style="shape=umlLifeline;perimeter=lifelinePerimeter;container=1;collapsible=0;recursiveResize=0;rounded=0;shadow=0;strokeWidth=1;" vertex="1" parent="tg8IRFTS-Eezlqzr4mQN-1">
          <mxGeometry x="659" y="80" width="173" height="517" as="geometry" />
        </mxCell>
        <mxCell id="tg8IRFTS-Eezlqzr4mQN-25" value="" style="html=1;points=[];perimeter=orthogonalPerimeter;" vertex="1" parent="tg8IRFTS-Eezlqzr4mQN-24">
          <mxGeometry x="81.5" y="170" width="10" height="183" as="geometry" />
        </mxCell>
        <mxCell id="tg8IRFTS-Eezlqzr4mQN-26" value="7.1.Return result" style="html=1;verticalAlign=bottom;endArrow=open;dashed=1;endSize=8;entryX=0.817;entryY=0.929;entryDx=0;entryDy=0;entryPerimeter=0;" edge="1" parent="tg8IRFTS-Eezlqzr4mQN-24" target="tg8IRFTS-Eezlqzr4mQN-25">
          <mxGeometry x="-0.0007" y="1" relative="1" as="geometry">
            <mxPoint x="256" y="340" as="sourcePoint" />
            <mxPoint x="101.50000000000011" y="340.385" as="targetPoint" />
            <mxPoint as="offset" />
          </mxGeometry>
        </mxCell>
        <mxCell id="tg8IRFTS-Eezlqzr4mQN-27" value="1. Click writing category" style="html=1;verticalAlign=bottom;endArrow=block;" edge="1" parent="tg8IRFTS-Eezlqzr4mQN-1">
          <mxGeometry x="-0.0735" y="4" width="80" relative="1" as="geometry">
            <mxPoint x="78" y="199" as="sourcePoint" />
            <mxPoint x="214" y="199" as="targetPoint" />
            <mxPoint as="offset" />
          </mxGeometry>
        </mxCell>
        <mxCell id="tg8IRFTS-Eezlqzr4mQN-28" value="2.findAllWritingQuestion()" style="html=1;verticalAlign=bottom;endArrow=block;exitX=1.022;exitY=0.526;exitDx=0;exitDy=0;exitPerimeter=0;" edge="1" parent="tg8IRFTS-Eezlqzr4mQN-1">
          <mxGeometry x="0.008" y="-1" width="80" relative="1" as="geometry">
            <mxPoint x="224.22000000000003" y="220.07999999999993" as="sourcePoint" />
            <mxPoint x="377" y="220" as="targetPoint" />
            <mxPoint as="offset" />
          </mxGeometry>
        </mxCell>
        <mxCell id="tg8IRFTS-Eezlqzr4mQN-29" value="4. findAllWritingQuestion()" style="html=1;verticalAlign=bottom;endArrow=block;entryX=0.15;entryY=0.024;entryDx=0;entryDy=0;entryPerimeter=0;exitX=0.997;exitY=0.073;exitDx=0;exitDy=0;exitPerimeter=0;" edge="1" parent="tg8IRFTS-Eezlqzr4mQN-1" source="tg8IRFTS-Eezlqzr4mQN-18" target="tg8IRFTS-Eezlqzr4mQN-25">
          <mxGeometry x="0.0216" y="-1" width="80" relative="1" as="geometry">
            <mxPoint x="644" y="257.5" as="sourcePoint" />
            <mxPoint x="764" y="259.5" as="targetPoint" />
            <mxPoint as="offset" />
          </mxGeometry>
        </mxCell>
        <mxCell id="tg8IRFTS-Eezlqzr4mQN-30" value="5. executeQuery()" style="html=1;verticalAlign=bottom;endArrow=block;entryX=-0.014;entryY=0.008;entryDx=0;entryDy=0;entryPerimeter=0;" edge="1" parent="tg8IRFTS-Eezlqzr4mQN-1" target="tg8IRFTS-Eezlqzr4mQN-5">
          <mxGeometry x="0.0909" width="80" relative="1" as="geometry">
            <mxPoint x="751" y="278" as="sourcePoint" />
            <mxPoint x="904" y="277.5" as="targetPoint" />
            <mxPoint as="offset" />
          </mxGeometry>
        </mxCell>
        <mxCell id="tg8IRFTS-Eezlqzr4mQN-31" value="8. Display view" style="html=1;verticalAlign=bottom;endArrow=open;dashed=1;endSize=8;exitX=-0.267;exitY=0.994;exitDx=0;exitDy=0;exitPerimeter=0;" edge="1" parent="tg8IRFTS-Eezlqzr4mQN-1">
          <mxGeometry x="-0.1124" relative="1" as="geometry">
            <mxPoint x="211.32999999999993" y="518.462" as="sourcePoint" />
            <mxPoint x="79" y="519" as="targetPoint" />
            <mxPoint as="offset" />
          </mxGeometry>
        </mxCell>
      </root>
    </mxGraphModel>
  </diagram>
  <diagram name="6.1.View Detail Reading Question" id="xyjvI-ZeY4I_S_NElD0c">
    <mxGraphModel dx="1246" dy="519" grid="0" gridSize="10" guides="1" tooltips="1" connect="1" arrows="1" fold="1" page="1" pageScale="1" pageWidth="850" pageHeight="1100" math="0" shadow="0">
      <root>
        <mxCell id="cPZ4ZVvcRTujzvGEtAFM-0" />
        <mxCell id="cPZ4ZVvcRTujzvGEtAFM-1" parent="cPZ4ZVvcRTujzvGEtAFM-0" />
        <mxCell id="cPZ4ZVvcRTujzvGEtAFM-2" value="" style="endArrow=none;dashed=1;html=1;rounded=0;" edge="1" parent="cPZ4ZVvcRTujzvGEtAFM-1" target="cPZ4ZVvcRTujzvGEtAFM-3">
          <mxGeometry width="50" height="50" relative="1" as="geometry">
            <mxPoint x="77" y="607" as="sourcePoint" />
            <mxPoint x="79" y="170" as="targetPoint" />
          </mxGeometry>
        </mxCell>
        <mxCell id="cPZ4ZVvcRTujzvGEtAFM-3" value="User" style="shape=umlActor;verticalLabelPosition=bottom;verticalAlign=top;html=1;" vertex="1" parent="cPZ4ZVvcRTujzvGEtAFM-1">
          <mxGeometry x="62" y="65" width="30" height="60" as="geometry" />
        </mxCell>
        <mxCell id="cPZ4ZVvcRTujzvGEtAFM-4" value="Database" style="shape=umlLifeline;perimeter=lifelinePerimeter;container=1;collapsible=0;recursiveResize=0;rounded=0;shadow=0;strokeWidth=1;" vertex="1" parent="cPZ4ZVvcRTujzvGEtAFM-1">
          <mxGeometry x="853" y="78.5" width="137" height="518.5" as="geometry" />
        </mxCell>
        <mxCell id="cPZ4ZVvcRTujzvGEtAFM-5" value="" style="html=1;points=[];perimeter=orthogonalPerimeter;" vertex="1" parent="cPZ4ZVvcRTujzvGEtAFM-4">
          <mxGeometry x="63.5" y="198" width="10" height="145" as="geometry" />
        </mxCell>
        <mxCell id="cPZ4ZVvcRTujzvGEtAFM-6" value="View" style="shape=umlLifeline;perimeter=lifelinePerimeter;container=1;collapsible=0;recursiveResize=0;rounded=0;shadow=0;strokeWidth=1;" vertex="1" parent="cPZ4ZVvcRTujzvGEtAFM-1">
          <mxGeometry x="169" y="80" width="100" height="517" as="geometry" />
        </mxCell>
        <mxCell id="cPZ4ZVvcRTujzvGEtAFM-7" value="" style="html=1;points=[];perimeter=orthogonalPerimeter;" vertex="1" parent="cPZ4ZVvcRTujzvGEtAFM-6">
          <mxGeometry x="45" y="117" width="10" height="323" as="geometry" />
        </mxCell>
        <mxCell id="cPZ4ZVvcRTujzvGEtAFM-8" value=":ReadingQuestionController" style="shape=umlLifeline;perimeter=lifelinePerimeter;container=1;collapsible=0;recursiveResize=0;rounded=0;shadow=0;strokeWidth=1;" vertex="1" parent="cPZ4ZVvcRTujzvGEtAFM-1">
          <mxGeometry x="299" y="79" width="160" height="521" as="geometry" />
        </mxCell>
        <mxCell id="cPZ4ZVvcRTujzvGEtAFM-9" value="" style="html=1;points=[];perimeter=orthogonalPerimeter;" vertex="1" parent="cPZ4ZVvcRTujzvGEtAFM-8">
          <mxGeometry x="78" y="137.5" width="10" height="246.5" as="geometry" />
        </mxCell>
        <mxCell id="cPZ4ZVvcRTujzvGEtAFM-10" value="3. findAllReadingQuestion()" style="html=1;verticalAlign=bottom;endArrow=block;entryX=-0.1;entryY=0.009;entryDx=0;entryDy=0;entryPerimeter=0;" edge="1" parent="cPZ4ZVvcRTujzvGEtAFM-8" target="cPZ4ZVvcRTujzvGEtAFM-18">
          <mxGeometry x="0.0909" width="80" relative="1" as="geometry">
            <mxPoint x="90" y="160" as="sourcePoint" />
            <mxPoint x="204" y="161" as="targetPoint" />
            <mxPoint as="offset" />
          </mxGeometry>
        </mxCell>
        <mxCell id="cPZ4ZVvcRTujzvGEtAFM-11" value="alt&amp;nbsp;find Reading question" style="shape=umlFrame;whiteSpace=wrap;html=1;width=189;height=25;" vertex="1" parent="cPZ4ZVvcRTujzvGEtAFM-8">
          <mxGeometry x="-299" y="236" width="984" height="173" as="geometry" />
        </mxCell>
        <mxCell id="cPZ4ZVvcRTujzvGEtAFM-12" value="[Not found quuestions]" style="text;html=1;strokeColor=none;fillColor=none;align=center;verticalAlign=middle;whiteSpace=wrap;rounded=0;" vertex="1" parent="cPZ4ZVvcRTujzvGEtAFM-8">
          <mxGeometry x="-222" y="262" width="126" height="30" as="geometry" />
        </mxCell>
        <mxCell id="cPZ4ZVvcRTujzvGEtAFM-13" value="" style="endArrow=none;dashed=1;html=1;rounded=0;exitX=0.002;exitY=0.568;exitDx=0;exitDy=0;exitPerimeter=0;entryX=0.999;entryY=0.457;entryDx=0;entryDy=0;entryPerimeter=0;" edge="1" parent="cPZ4ZVvcRTujzvGEtAFM-8" target="cPZ4ZVvcRTujzvGEtAFM-11">
          <mxGeometry width="50" height="50" relative="1" as="geometry">
            <mxPoint x="-297.10799999999995" y="316.264" as="sourcePoint" />
            <mxPoint x="645" y="315" as="targetPoint" />
          </mxGeometry>
        </mxCell>
        <mxCell id="cPZ4ZVvcRTujzvGEtAFM-14" value="[Found questions]" style="text;html=1;strokeColor=none;fillColor=none;align=center;verticalAlign=middle;whiteSpace=wrap;rounded=0;" vertex="1" parent="cPZ4ZVvcRTujzvGEtAFM-8">
          <mxGeometry x="-220" y="329" width="120" height="30" as="geometry" />
        </mxCell>
        <mxCell id="cPZ4ZVvcRTujzvGEtAFM-15" value="7.1.Return result" style="html=1;verticalAlign=bottom;endArrow=open;dashed=1;endSize=8;entryX=0.942;entryY=0.425;entryDx=0;entryDy=0;entryPerimeter=0;exitX=-0.05;exitY=0.553;exitDx=0;exitDy=0;exitPerimeter=0;" edge="1" parent="cPZ4ZVvcRTujzvGEtAFM-8">
          <mxGeometry x="-0.0007" y="1" relative="1" as="geometry">
            <mxPoint x="257" y="362" as="sourcePoint" />
            <mxPoint x="91.00000000000011" y="362.385" as="targetPoint" />
            <mxPoint as="offset" />
          </mxGeometry>
        </mxCell>
        <mxCell id="cPZ4ZVvcRTujzvGEtAFM-16" value="7.1.Return result" style="html=1;verticalAlign=bottom;endArrow=open;dashed=1;endSize=8;entryX=0.942;entryY=0.425;entryDx=0;entryDy=0;entryPerimeter=0;" edge="1" parent="cPZ4ZVvcRTujzvGEtAFM-8">
          <mxGeometry x="-0.0007" y="1" relative="1" as="geometry">
            <mxPoint x="77" y="383" as="sourcePoint" />
            <mxPoint x="-74.99999999999989" y="383.385" as="targetPoint" />
            <mxPoint as="offset" />
          </mxGeometry>
        </mxCell>
        <mxCell id="cPZ4ZVvcRTujzvGEtAFM-17" value=":IReadingQuestionService" style="shape=umlLifeline;perimeter=lifelinePerimeter;container=1;collapsible=0;recursiveResize=0;rounded=0;shadow=0;strokeWidth=1;" vertex="1" parent="cPZ4ZVvcRTujzvGEtAFM-1">
          <mxGeometry x="485" y="80" width="162" height="519" as="geometry" />
        </mxCell>
        <mxCell id="cPZ4ZVvcRTujzvGEtAFM-18" value="" style="html=1;points=[];perimeter=orthogonalPerimeter;" vertex="1" parent="cPZ4ZVvcRTujzvGEtAFM-17">
          <mxGeometry x="76" y="158.25" width="10" height="201.75" as="geometry" />
        </mxCell>
        <mxCell id="cPZ4ZVvcRTujzvGEtAFM-19" value="6.1. Return null" style="html=1;verticalAlign=bottom;endArrow=open;dashed=1;endSize=8;exitX=0.042;exitY=0.509;exitDx=0;exitDy=0;exitPerimeter=0;entryX=1;entryY=0.506;entryDx=0;entryDy=0;entryPerimeter=0;" edge="1" parent="cPZ4ZVvcRTujzvGEtAFM-17">
          <mxGeometry x="-0.0223" relative="1" as="geometry">
            <mxPoint x="257.7500000000001" y="269.797" as="sourcePoint" />
            <mxPoint x="81.83000000000004" y="270.552" as="targetPoint" />
            <mxPoint as="offset" />
          </mxGeometry>
        </mxCell>
        <mxCell id="cPZ4ZVvcRTujzvGEtAFM-20" value="6.1. Return null" style="html=1;verticalAlign=bottom;endArrow=open;dashed=1;endSize=8;entryX=1.15;entryY=0.488;entryDx=0;entryDy=0;entryPerimeter=0;" edge="1" parent="cPZ4ZVvcRTujzvGEtAFM-17" target="cPZ4ZVvcRTujzvGEtAFM-25">
          <mxGeometry x="-0.0007" y="1" relative="1" as="geometry">
            <mxPoint x="431" y="259" as="sourcePoint" />
            <mxPoint x="278.7500000000001" y="259.385" as="targetPoint" />
            <mxPoint as="offset" />
          </mxGeometry>
        </mxCell>
        <mxCell id="cPZ4ZVvcRTujzvGEtAFM-21" value="6.1. Return null" style="html=1;verticalAlign=bottom;endArrow=open;dashed=1;endSize=8;exitX=0.233;exitY=0.571;exitDx=0;exitDy=0;exitPerimeter=0;" edge="1" parent="cPZ4ZVvcRTujzvGEtAFM-17">
          <mxGeometry relative="1" as="geometry">
            <mxPoint x="74.15999999999997" y="285.88199999999995" as="sourcePoint" />
            <mxPoint x="-95" y="284" as="targetPoint" />
            <mxPoint as="offset" />
          </mxGeometry>
        </mxCell>
        <mxCell id="cPZ4ZVvcRTujzvGEtAFM-22" value="6.1. Return null" style="html=1;verticalAlign=bottom;endArrow=open;dashed=1;endSize=8;exitX=-0.083;exitY=0.621;exitDx=0;exitDy=0;exitPerimeter=0;entryX=0.817;entryY=0.525;entryDx=0;entryDy=0;entryPerimeter=0;" edge="1" parent="cPZ4ZVvcRTujzvGEtAFM-17">
          <mxGeometry x="-0.027" relative="1" as="geometry">
            <mxPoint x="-112.99999999999994" y="300.693" as="sourcePoint" />
            <mxPoint x="-260.9999999999999" y="301.68500000000006" as="targetPoint" />
            <mxPoint as="offset" />
          </mxGeometry>
        </mxCell>
        <mxCell id="cPZ4ZVvcRTujzvGEtAFM-23" value="7.1.Return result" style="html=1;verticalAlign=bottom;endArrow=open;dashed=1;endSize=8;entryX=0.942;entryY=0.425;entryDx=0;entryDy=0;entryPerimeter=0;" edge="1" parent="cPZ4ZVvcRTujzvGEtAFM-17" source="cPZ4ZVvcRTujzvGEtAFM-25">
          <mxGeometry x="-0.0007" y="1" relative="1" as="geometry">
            <mxPoint x="243.5" y="349" as="sourcePoint" />
            <mxPoint x="89.00000000000011" y="349.385" as="targetPoint" />
            <mxPoint as="offset" />
          </mxGeometry>
        </mxCell>
        <mxCell id="cPZ4ZVvcRTujzvGEtAFM-24" value=":IReadingQuestionRepository" style="shape=umlLifeline;perimeter=lifelinePerimeter;container=1;collapsible=0;recursiveResize=0;rounded=0;shadow=0;strokeWidth=1;" vertex="1" parent="cPZ4ZVvcRTujzvGEtAFM-1">
          <mxGeometry x="659" y="80" width="173" height="517" as="geometry" />
        </mxCell>
        <mxCell id="cPZ4ZVvcRTujzvGEtAFM-25" value="" style="html=1;points=[];perimeter=orthogonalPerimeter;" vertex="1" parent="cPZ4ZVvcRTujzvGEtAFM-24">
          <mxGeometry x="81.5" y="170" width="10" height="183" as="geometry" />
        </mxCell>
        <mxCell id="cPZ4ZVvcRTujzvGEtAFM-26" value="7.1.Return result" style="html=1;verticalAlign=bottom;endArrow=open;dashed=1;endSize=8;entryX=0.817;entryY=0.929;entryDx=0;entryDy=0;entryPerimeter=0;" edge="1" parent="cPZ4ZVvcRTujzvGEtAFM-24" target="cPZ4ZVvcRTujzvGEtAFM-25">
          <mxGeometry x="-0.0007" y="1" relative="1" as="geometry">
            <mxPoint x="256" y="340" as="sourcePoint" />
            <mxPoint x="101.50000000000011" y="340.385" as="targetPoint" />
            <mxPoint as="offset" />
          </mxGeometry>
        </mxCell>
        <mxCell id="cPZ4ZVvcRTujzvGEtAFM-27" value="1. Click Reading category" style="html=1;verticalAlign=bottom;endArrow=block;" edge="1" parent="cPZ4ZVvcRTujzvGEtAFM-1">
          <mxGeometry x="-0.0735" y="4" width="80" relative="1" as="geometry">
            <mxPoint x="78" y="199" as="sourcePoint" />
            <mxPoint x="214" y="199" as="targetPoint" />
            <mxPoint as="offset" />
          </mxGeometry>
        </mxCell>
        <mxCell id="cPZ4ZVvcRTujzvGEtAFM-28" value="2.findAllReadingQuestion()" style="html=1;verticalAlign=bottom;endArrow=block;exitX=1.022;exitY=0.526;exitDx=0;exitDy=0;exitPerimeter=0;" edge="1" parent="cPZ4ZVvcRTujzvGEtAFM-1">
          <mxGeometry x="0.008" y="-1" width="80" relative="1" as="geometry">
            <mxPoint x="224.22000000000003" y="220.07999999999993" as="sourcePoint" />
            <mxPoint x="377" y="220" as="targetPoint" />
            <mxPoint as="offset" />
          </mxGeometry>
        </mxCell>
        <mxCell id="cPZ4ZVvcRTujzvGEtAFM-29" value="4. findAllReadingQuestion()" style="html=1;verticalAlign=bottom;endArrow=block;entryX=0.15;entryY=0.024;entryDx=0;entryDy=0;entryPerimeter=0;exitX=0.997;exitY=0.073;exitDx=0;exitDy=0;exitPerimeter=0;" edge="1" parent="cPZ4ZVvcRTujzvGEtAFM-1" source="cPZ4ZVvcRTujzvGEtAFM-18" target="cPZ4ZVvcRTujzvGEtAFM-25">
          <mxGeometry x="0.0216" y="-1" width="80" relative="1" as="geometry">
            <mxPoint x="644" y="257.5" as="sourcePoint" />
            <mxPoint x="764" y="259.5" as="targetPoint" />
            <mxPoint as="offset" />
          </mxGeometry>
        </mxCell>
        <mxCell id="cPZ4ZVvcRTujzvGEtAFM-30" value="5. executeQuery()" style="html=1;verticalAlign=bottom;endArrow=block;entryX=-0.014;entryY=0.008;entryDx=0;entryDy=0;entryPerimeter=0;" edge="1" parent="cPZ4ZVvcRTujzvGEtAFM-1" target="cPZ4ZVvcRTujzvGEtAFM-5">
          <mxGeometry x="0.0909" width="80" relative="1" as="geometry">
            <mxPoint x="751" y="278" as="sourcePoint" />
            <mxPoint x="904" y="277.5" as="targetPoint" />
            <mxPoint as="offset" />
          </mxGeometry>
        </mxCell>
        <mxCell id="cPZ4ZVvcRTujzvGEtAFM-31" value="8. Display view" style="html=1;verticalAlign=bottom;endArrow=open;dashed=1;endSize=8;exitX=-0.267;exitY=0.994;exitDx=0;exitDy=0;exitPerimeter=0;" edge="1" parent="cPZ4ZVvcRTujzvGEtAFM-1">
          <mxGeometry x="-0.1124" relative="1" as="geometry">
            <mxPoint x="211.32999999999993" y="518.462" as="sourcePoint" />
            <mxPoint x="79" y="519" as="targetPoint" />
            <mxPoint as="offset" />
          </mxGeometry>
        </mxCell>
      </root>
    </mxGraphModel>
  </diagram>
  <diagram name="7.1.View Detail Listening Question" id="gMpjGiLL3JFiokyMZ0aG">
    <mxGraphModel dx="1246" dy="519" grid="0" gridSize="10" guides="1" tooltips="1" connect="1" arrows="1" fold="1" page="1" pageScale="1" pageWidth="850" pageHeight="1100" math="0" shadow="0">
      <root>
        <mxCell id="-3gU0FoHoPAjOlWJYFme-0" />
        <mxCell id="-3gU0FoHoPAjOlWJYFme-1" parent="-3gU0FoHoPAjOlWJYFme-0" />
        <mxCell id="-3gU0FoHoPAjOlWJYFme-2" value="" style="endArrow=none;dashed=1;html=1;rounded=0;" edge="1" parent="-3gU0FoHoPAjOlWJYFme-1" target="-3gU0FoHoPAjOlWJYFme-3">
          <mxGeometry width="50" height="50" relative="1" as="geometry">
            <mxPoint x="77" y="607" as="sourcePoint" />
            <mxPoint x="79" y="170" as="targetPoint" />
          </mxGeometry>
        </mxCell>
        <mxCell id="-3gU0FoHoPAjOlWJYFme-3" value="User" style="shape=umlActor;verticalLabelPosition=bottom;verticalAlign=top;html=1;" vertex="1" parent="-3gU0FoHoPAjOlWJYFme-1">
          <mxGeometry x="62" y="65" width="30" height="60" as="geometry" />
        </mxCell>
        <mxCell id="-3gU0FoHoPAjOlWJYFme-4" value="Database" style="shape=umlLifeline;perimeter=lifelinePerimeter;container=1;collapsible=0;recursiveResize=0;rounded=0;shadow=0;strokeWidth=1;" vertex="1" parent="-3gU0FoHoPAjOlWJYFme-1">
          <mxGeometry x="853" y="78.5" width="137" height="518.5" as="geometry" />
        </mxCell>
        <mxCell id="-3gU0FoHoPAjOlWJYFme-5" value="" style="html=1;points=[];perimeter=orthogonalPerimeter;" vertex="1" parent="-3gU0FoHoPAjOlWJYFme-4">
          <mxGeometry x="63.5" y="198" width="10" height="145" as="geometry" />
        </mxCell>
        <mxCell id="-3gU0FoHoPAjOlWJYFme-6" value="View" style="shape=umlLifeline;perimeter=lifelinePerimeter;container=1;collapsible=0;recursiveResize=0;rounded=0;shadow=0;strokeWidth=1;" vertex="1" parent="-3gU0FoHoPAjOlWJYFme-1">
          <mxGeometry x="169" y="80" width="100" height="517" as="geometry" />
        </mxCell>
        <mxCell id="-3gU0FoHoPAjOlWJYFme-7" value="" style="html=1;points=[];perimeter=orthogonalPerimeter;" vertex="1" parent="-3gU0FoHoPAjOlWJYFme-6">
          <mxGeometry x="45" y="117" width="10" height="323" as="geometry" />
        </mxCell>
        <mxCell id="-3gU0FoHoPAjOlWJYFme-8" value=":ListeningQuestionController" style="shape=umlLifeline;perimeter=lifelinePerimeter;container=1;collapsible=0;recursiveResize=0;rounded=0;shadow=0;strokeWidth=1;" vertex="1" parent="-3gU0FoHoPAjOlWJYFme-1">
          <mxGeometry x="299" y="79" width="160" height="521" as="geometry" />
        </mxCell>
        <mxCell id="-3gU0FoHoPAjOlWJYFme-9" value="" style="html=1;points=[];perimeter=orthogonalPerimeter;" vertex="1" parent="-3gU0FoHoPAjOlWJYFme-8">
          <mxGeometry x="78" y="137.5" width="10" height="246.5" as="geometry" />
        </mxCell>
        <mxCell id="-3gU0FoHoPAjOlWJYFme-10" value="3. findAllListeningQuestion()" style="html=1;verticalAlign=bottom;endArrow=block;entryX=-0.1;entryY=0.009;entryDx=0;entryDy=0;entryPerimeter=0;" edge="1" parent="-3gU0FoHoPAjOlWJYFme-8" target="-3gU0FoHoPAjOlWJYFme-18">
          <mxGeometry x="0.0909" width="80" relative="1" as="geometry">
            <mxPoint x="90" y="160" as="sourcePoint" />
            <mxPoint x="204" y="161" as="targetPoint" />
            <mxPoint as="offset" />
          </mxGeometry>
        </mxCell>
        <mxCell id="-3gU0FoHoPAjOlWJYFme-11" value="alt&amp;nbsp;find Listening question" style="shape=umlFrame;whiteSpace=wrap;html=1;width=189;height=25;" vertex="1" parent="-3gU0FoHoPAjOlWJYFme-8">
          <mxGeometry x="-299" y="236" width="984" height="173" as="geometry" />
        </mxCell>
        <mxCell id="-3gU0FoHoPAjOlWJYFme-12" value="[Not found quuestions]" style="text;html=1;strokeColor=none;fillColor=none;align=center;verticalAlign=middle;whiteSpace=wrap;rounded=0;" vertex="1" parent="-3gU0FoHoPAjOlWJYFme-8">
          <mxGeometry x="-222" y="262" width="126" height="30" as="geometry" />
        </mxCell>
        <mxCell id="-3gU0FoHoPAjOlWJYFme-13" value="" style="endArrow=none;dashed=1;html=1;rounded=0;exitX=0.002;exitY=0.568;exitDx=0;exitDy=0;exitPerimeter=0;entryX=0.999;entryY=0.457;entryDx=0;entryDy=0;entryPerimeter=0;" edge="1" parent="-3gU0FoHoPAjOlWJYFme-8" target="-3gU0FoHoPAjOlWJYFme-11">
          <mxGeometry width="50" height="50" relative="1" as="geometry">
            <mxPoint x="-297.10799999999995" y="316.264" as="sourcePoint" />
            <mxPoint x="645" y="315" as="targetPoint" />
          </mxGeometry>
        </mxCell>
        <mxCell id="-3gU0FoHoPAjOlWJYFme-14" value="[Found questions]" style="text;html=1;strokeColor=none;fillColor=none;align=center;verticalAlign=middle;whiteSpace=wrap;rounded=0;" vertex="1" parent="-3gU0FoHoPAjOlWJYFme-8">
          <mxGeometry x="-220" y="329" width="120" height="30" as="geometry" />
        </mxCell>
        <mxCell id="-3gU0FoHoPAjOlWJYFme-15" value="7.1.Return result" style="html=1;verticalAlign=bottom;endArrow=open;dashed=1;endSize=8;entryX=0.942;entryY=0.425;entryDx=0;entryDy=0;entryPerimeter=0;exitX=-0.05;exitY=0.553;exitDx=0;exitDy=0;exitPerimeter=0;" edge="1" parent="-3gU0FoHoPAjOlWJYFme-8">
          <mxGeometry x="-0.0007" y="1" relative="1" as="geometry">
            <mxPoint x="257" y="362" as="sourcePoint" />
            <mxPoint x="91.00000000000011" y="362.385" as="targetPoint" />
            <mxPoint as="offset" />
          </mxGeometry>
        </mxCell>
        <mxCell id="-3gU0FoHoPAjOlWJYFme-16" value="7.1.Return result" style="html=1;verticalAlign=bottom;endArrow=open;dashed=1;endSize=8;entryX=0.942;entryY=0.425;entryDx=0;entryDy=0;entryPerimeter=0;" edge="1" parent="-3gU0FoHoPAjOlWJYFme-8">
          <mxGeometry x="-0.0007" y="1" relative="1" as="geometry">
            <mxPoint x="77" y="383" as="sourcePoint" />
            <mxPoint x="-74.99999999999989" y="383.385" as="targetPoint" />
            <mxPoint as="offset" />
          </mxGeometry>
        </mxCell>
        <mxCell id="-3gU0FoHoPAjOlWJYFme-17" value=":IListeningQuestionService" style="shape=umlLifeline;perimeter=lifelinePerimeter;container=1;collapsible=0;recursiveResize=0;rounded=0;shadow=0;strokeWidth=1;" vertex="1" parent="-3gU0FoHoPAjOlWJYFme-1">
          <mxGeometry x="485" y="80" width="162" height="519" as="geometry" />
        </mxCell>
        <mxCell id="-3gU0FoHoPAjOlWJYFme-18" value="" style="html=1;points=[];perimeter=orthogonalPerimeter;" vertex="1" parent="-3gU0FoHoPAjOlWJYFme-17">
          <mxGeometry x="76" y="158.25" width="10" height="201.75" as="geometry" />
        </mxCell>
        <mxCell id="-3gU0FoHoPAjOlWJYFme-19" value="6.1. Return null" style="html=1;verticalAlign=bottom;endArrow=open;dashed=1;endSize=8;exitX=0.042;exitY=0.509;exitDx=0;exitDy=0;exitPerimeter=0;entryX=1;entryY=0.506;entryDx=0;entryDy=0;entryPerimeter=0;" edge="1" parent="-3gU0FoHoPAjOlWJYFme-17">
          <mxGeometry x="-0.0223" relative="1" as="geometry">
            <mxPoint x="257.7500000000001" y="269.797" as="sourcePoint" />
            <mxPoint x="81.83000000000004" y="270.552" as="targetPoint" />
            <mxPoint as="offset" />
          </mxGeometry>
        </mxCell>
        <mxCell id="-3gU0FoHoPAjOlWJYFme-20" value="6.1. Return null" style="html=1;verticalAlign=bottom;endArrow=open;dashed=1;endSize=8;entryX=1.15;entryY=0.488;entryDx=0;entryDy=0;entryPerimeter=0;" edge="1" parent="-3gU0FoHoPAjOlWJYFme-17" target="-3gU0FoHoPAjOlWJYFme-25">
          <mxGeometry x="-0.0007" y="1" relative="1" as="geometry">
            <mxPoint x="431" y="259" as="sourcePoint" />
            <mxPoint x="278.7500000000001" y="259.385" as="targetPoint" />
            <mxPoint as="offset" />
          </mxGeometry>
        </mxCell>
        <mxCell id="-3gU0FoHoPAjOlWJYFme-21" value="6.1. Return null" style="html=1;verticalAlign=bottom;endArrow=open;dashed=1;endSize=8;exitX=0.233;exitY=0.571;exitDx=0;exitDy=0;exitPerimeter=0;" edge="1" parent="-3gU0FoHoPAjOlWJYFme-17">
          <mxGeometry relative="1" as="geometry">
            <mxPoint x="74.15999999999997" y="285.88199999999995" as="sourcePoint" />
            <mxPoint x="-95" y="284" as="targetPoint" />
            <mxPoint as="offset" />
          </mxGeometry>
        </mxCell>
        <mxCell id="-3gU0FoHoPAjOlWJYFme-22" value="6.1. Return null" style="html=1;verticalAlign=bottom;endArrow=open;dashed=1;endSize=8;exitX=-0.083;exitY=0.621;exitDx=0;exitDy=0;exitPerimeter=0;entryX=0.817;entryY=0.525;entryDx=0;entryDy=0;entryPerimeter=0;" edge="1" parent="-3gU0FoHoPAjOlWJYFme-17">
          <mxGeometry x="-0.027" relative="1" as="geometry">
            <mxPoint x="-112.99999999999994" y="300.693" as="sourcePoint" />
            <mxPoint x="-260.9999999999999" y="301.68500000000006" as="targetPoint" />
            <mxPoint as="offset" />
          </mxGeometry>
        </mxCell>
        <mxCell id="-3gU0FoHoPAjOlWJYFme-23" value="7.1.Return result" style="html=1;verticalAlign=bottom;endArrow=open;dashed=1;endSize=8;entryX=0.942;entryY=0.425;entryDx=0;entryDy=0;entryPerimeter=0;" edge="1" parent="-3gU0FoHoPAjOlWJYFme-17" source="-3gU0FoHoPAjOlWJYFme-25">
          <mxGeometry x="-0.0007" y="1" relative="1" as="geometry">
            <mxPoint x="243.5" y="349" as="sourcePoint" />
            <mxPoint x="89.00000000000011" y="349.385" as="targetPoint" />
            <mxPoint as="offset" />
          </mxGeometry>
        </mxCell>
        <mxCell id="-3gU0FoHoPAjOlWJYFme-24" value=":IListeningQuestionRepository" style="shape=umlLifeline;perimeter=lifelinePerimeter;container=1;collapsible=0;recursiveResize=0;rounded=0;shadow=0;strokeWidth=1;" vertex="1" parent="-3gU0FoHoPAjOlWJYFme-1">
          <mxGeometry x="659" y="80" width="173" height="517" as="geometry" />
        </mxCell>
        <mxCell id="-3gU0FoHoPAjOlWJYFme-25" value="" style="html=1;points=[];perimeter=orthogonalPerimeter;" vertex="1" parent="-3gU0FoHoPAjOlWJYFme-24">
          <mxGeometry x="81.5" y="170" width="10" height="183" as="geometry" />
        </mxCell>
        <mxCell id="-3gU0FoHoPAjOlWJYFme-26" value="7.1.Return result" style="html=1;verticalAlign=bottom;endArrow=open;dashed=1;endSize=8;entryX=0.817;entryY=0.929;entryDx=0;entryDy=0;entryPerimeter=0;" edge="1" parent="-3gU0FoHoPAjOlWJYFme-24" target="-3gU0FoHoPAjOlWJYFme-25">
          <mxGeometry x="-0.0007" y="1" relative="1" as="geometry">
            <mxPoint x="256" y="340" as="sourcePoint" />
            <mxPoint x="101.50000000000011" y="340.385" as="targetPoint" />
            <mxPoint as="offset" />
          </mxGeometry>
        </mxCell>
        <mxCell id="-3gU0FoHoPAjOlWJYFme-27" value="1. Click Listening category" style="html=1;verticalAlign=bottom;endArrow=block;" edge="1" parent="-3gU0FoHoPAjOlWJYFme-1">
          <mxGeometry x="-0.0735" y="4" width="80" relative="1" as="geometry">
            <mxPoint x="78" y="199" as="sourcePoint" />
            <mxPoint x="214" y="199" as="targetPoint" />
            <mxPoint as="offset" />
          </mxGeometry>
        </mxCell>
        <mxCell id="-3gU0FoHoPAjOlWJYFme-28" value="2.findAllListeningQuestion()" style="html=1;verticalAlign=bottom;endArrow=block;exitX=1.022;exitY=0.526;exitDx=0;exitDy=0;exitPerimeter=0;" edge="1" parent="-3gU0FoHoPAjOlWJYFme-1">
          <mxGeometry x="0.008" y="-1" width="80" relative="1" as="geometry">
            <mxPoint x="224.22000000000003" y="220.07999999999993" as="sourcePoint" />
            <mxPoint x="377" y="220" as="targetPoint" />
            <mxPoint as="offset" />
          </mxGeometry>
        </mxCell>
        <mxCell id="-3gU0FoHoPAjOlWJYFme-29" value="4. findAllListeningQuestion()" style="html=1;verticalAlign=bottom;endArrow=block;entryX=0.15;entryY=0.024;entryDx=0;entryDy=0;entryPerimeter=0;exitX=0.997;exitY=0.073;exitDx=0;exitDy=0;exitPerimeter=0;" edge="1" parent="-3gU0FoHoPAjOlWJYFme-1" source="-3gU0FoHoPAjOlWJYFme-18" target="-3gU0FoHoPAjOlWJYFme-25">
          <mxGeometry x="0.0216" y="-1" width="80" relative="1" as="geometry">
            <mxPoint x="644" y="257.5" as="sourcePoint" />
            <mxPoint x="764" y="259.5" as="targetPoint" />
            <mxPoint as="offset" />
          </mxGeometry>
        </mxCell>
        <mxCell id="-3gU0FoHoPAjOlWJYFme-30" value="5. executeQuery()" style="html=1;verticalAlign=bottom;endArrow=block;entryX=-0.014;entryY=0.008;entryDx=0;entryDy=0;entryPerimeter=0;" edge="1" parent="-3gU0FoHoPAjOlWJYFme-1" target="-3gU0FoHoPAjOlWJYFme-5">
          <mxGeometry x="0.0909" width="80" relative="1" as="geometry">
            <mxPoint x="751" y="278" as="sourcePoint" />
            <mxPoint x="904" y="277.5" as="targetPoint" />
            <mxPoint as="offset" />
          </mxGeometry>
        </mxCell>
        <mxCell id="-3gU0FoHoPAjOlWJYFme-31" value="8. Display view" style="html=1;verticalAlign=bottom;endArrow=open;dashed=1;endSize=8;exitX=-0.267;exitY=0.994;exitDx=0;exitDy=0;exitPerimeter=0;" edge="1" parent="-3gU0FoHoPAjOlWJYFme-1">
          <mxGeometry x="-0.1124" relative="1" as="geometry">
            <mxPoint x="211.32999999999993" y="518.462" as="sourcePoint" />
            <mxPoint x="79" y="519" as="targetPoint" />
            <mxPoint as="offset" />
          </mxGeometry>
        </mxCell>
      </root>
    </mxGraphModel>
  </diagram>
  <diagram name="8.1.Add Product To Cart" id="Ay8RAYM5AhO_QWNtT5d0">
    <mxGraphModel dx="1246" dy="519" grid="0" gridSize="10" guides="1" tooltips="1" connect="1" arrows="1" fold="1" page="1" pageScale="1" pageWidth="850" pageHeight="1100" math="0" shadow="0">
      <root>
        <mxCell id="QsC0UkDtgjihkFTkqLXX-0" />
        <mxCell id="QsC0UkDtgjihkFTkqLXX-1" parent="QsC0UkDtgjihkFTkqLXX-0" />
        <mxCell id="QsC0UkDtgjihkFTkqLXX-2" value="" style="endArrow=none;dashed=1;html=1;rounded=0;" edge="1" parent="QsC0UkDtgjihkFTkqLXX-1" target="QsC0UkDtgjihkFTkqLXX-3">
          <mxGeometry width="50" height="50" relative="1" as="geometry">
            <mxPoint x="77" y="607" as="sourcePoint" />
            <mxPoint x="79" y="170" as="targetPoint" />
          </mxGeometry>
        </mxCell>
        <mxCell id="QsC0UkDtgjihkFTkqLXX-3" value="User" style="shape=umlActor;verticalLabelPosition=bottom;verticalAlign=top;html=1;" vertex="1" parent="QsC0UkDtgjihkFTkqLXX-1">
          <mxGeometry x="62" y="65" width="30" height="60" as="geometry" />
        </mxCell>
        <mxCell id="QsC0UkDtgjihkFTkqLXX-4" value="Database" style="shape=umlLifeline;perimeter=lifelinePerimeter;container=1;collapsible=0;recursiveResize=0;rounded=0;shadow=0;strokeWidth=1;" vertex="1" parent="QsC0UkDtgjihkFTkqLXX-1">
          <mxGeometry x="853" y="78.5" width="137" height="518.5" as="geometry" />
        </mxCell>
        <mxCell id="QsC0UkDtgjihkFTkqLXX-5" value="" style="html=1;points=[];perimeter=orthogonalPerimeter;" vertex="1" parent="QsC0UkDtgjihkFTkqLXX-4">
          <mxGeometry x="63.5" y="198" width="10" height="185" as="geometry" />
        </mxCell>
        <mxCell id="QsC0UkDtgjihkFTkqLXX-6" value="View" style="shape=umlLifeline;perimeter=lifelinePerimeter;container=1;collapsible=0;recursiveResize=0;rounded=0;shadow=0;strokeWidth=1;" vertex="1" parent="QsC0UkDtgjihkFTkqLXX-1">
          <mxGeometry x="169" y="80" width="100" height="517" as="geometry" />
        </mxCell>
        <mxCell id="QsC0UkDtgjihkFTkqLXX-7" value="" style="html=1;points=[];perimeter=orthogonalPerimeter;" vertex="1" parent="QsC0UkDtgjihkFTkqLXX-6">
          <mxGeometry x="45" y="117" width="10" height="379" as="geometry" />
        </mxCell>
        <mxCell id="QsC0UkDtgjihkFTkqLXX-8" value=":OrderController" style="shape=umlLifeline;perimeter=lifelinePerimeter;container=1;collapsible=0;recursiveResize=0;rounded=0;shadow=0;strokeWidth=1;" vertex="1" parent="QsC0UkDtgjihkFTkqLXX-1">
          <mxGeometry x="299" y="78" width="168" height="522" as="geometry" />
        </mxCell>
        <mxCell id="QsC0UkDtgjihkFTkqLXX-9" value="" style="html=1;points=[];perimeter=orthogonalPerimeter;" vertex="1" parent="QsC0UkDtgjihkFTkqLXX-8">
          <mxGeometry x="78" y="137.5" width="10" height="291.5" as="geometry" />
        </mxCell>
        <mxCell id="QsC0UkDtgjihkFTkqLXX-10" value="4. saveOrder()" style="html=1;verticalAlign=bottom;endArrow=block;entryX=-0.1;entryY=0.009;entryDx=0;entryDy=0;entryPerimeter=0;" edge="1" parent="QsC0UkDtgjihkFTkqLXX-8">
          <mxGeometry x="0.0909" width="80" relative="1" as="geometry">
            <mxPoint x="90" y="191" as="sourcePoint" />
            <mxPoint x="261" y="192.06574999999998" as="targetPoint" />
            <mxPoint as="offset" />
          </mxGeometry>
        </mxCell>
        <mxCell id="QsC0UkDtgjihkFTkqLXX-11" value="alt&amp;nbsp;validate order info" style="shape=umlFrame;whiteSpace=wrap;html=1;width=189;height=25;" vertex="1" parent="QsC0UkDtgjihkFTkqLXX-8">
          <mxGeometry x="-299" y="236" width="984" height="233" as="geometry" />
        </mxCell>
        <mxCell id="QsC0UkDtgjihkFTkqLXX-12" value="[Invalid order]" style="text;html=1;strokeColor=none;fillColor=none;align=center;verticalAlign=middle;whiteSpace=wrap;rounded=0;" vertex="1" parent="QsC0UkDtgjihkFTkqLXX-8">
          <mxGeometry x="-222" y="262" width="126" height="30" as="geometry" />
        </mxCell>
        <mxCell id="QsC0UkDtgjihkFTkqLXX-13" value="" style="endArrow=none;dashed=1;html=1;rounded=0;exitX=0.002;exitY=0.568;exitDx=0;exitDy=0;exitPerimeter=0;" edge="1" parent="QsC0UkDtgjihkFTkqLXX-8">
          <mxGeometry width="50" height="50" relative="1" as="geometry">
            <mxPoint x="-297.10799999999995" y="316.264" as="sourcePoint" />
            <mxPoint x="680" y="322" as="targetPoint" />
          </mxGeometry>
        </mxCell>
        <mxCell id="QsC0UkDtgjihkFTkqLXX-14" value="[Valid order]" style="text;html=1;strokeColor=none;fillColor=none;align=center;verticalAlign=middle;whiteSpace=wrap;rounded=0;" vertex="1" parent="QsC0UkDtgjihkFTkqLXX-8">
          <mxGeometry x="-220" y="329" width="120" height="30" as="geometry" />
        </mxCell>
        <mxCell id="QsC0UkDtgjihkFTkqLXX-15" value="8.1.Return result" style="html=1;verticalAlign=bottom;endArrow=open;dashed=1;endSize=8;entryX=0.942;entryY=0.425;entryDx=0;entryDy=0;entryPerimeter=0;exitX=-0.05;exitY=0.553;exitDx=0;exitDy=0;exitPerimeter=0;" edge="1" parent="QsC0UkDtgjihkFTkqLXX-8">
          <mxGeometry x="-0.0007" y="1" relative="1" as="geometry">
            <mxPoint x="257" y="412" as="sourcePoint" />
            <mxPoint x="91.00000000000011" y="412.385" as="targetPoint" />
            <mxPoint as="offset" />
          </mxGeometry>
        </mxCell>
        <mxCell id="QsC0UkDtgjihkFTkqLXX-16" value="8.1.Return result" style="html=1;verticalAlign=bottom;endArrow=open;dashed=1;endSize=8;entryX=0.942;entryY=0.425;entryDx=0;entryDy=0;entryPerimeter=0;" edge="1" parent="QsC0UkDtgjihkFTkqLXX-8">
          <mxGeometry x="-0.0007" y="1" relative="1" as="geometry">
            <mxPoint x="77" y="426" as="sourcePoint" />
            <mxPoint x="-74.99999999999989" y="426.385" as="targetPoint" />
            <mxPoint as="offset" />
          </mxGeometry>
        </mxCell>
        <mxCell id="QsC0UkDtgjihkFTkqLXX-17" value=":IOrderService" style="shape=umlLifeline;perimeter=lifelinePerimeter;container=1;collapsible=0;recursiveResize=0;rounded=0;shadow=0;strokeWidth=1;" vertex="1" parent="QsC0UkDtgjihkFTkqLXX-1">
          <mxGeometry x="485" y="80" width="162" height="519" as="geometry" />
        </mxCell>
        <mxCell id="QsC0UkDtgjihkFTkqLXX-18" value="" style="html=1;points=[];perimeter=orthogonalPerimeter;" vertex="1" parent="QsC0UkDtgjihkFTkqLXX-17">
          <mxGeometry x="76" y="158.25" width="10" height="255.75" as="geometry" />
        </mxCell>
        <mxCell id="QsC0UkDtgjihkFTkqLXX-21" value="5.1. Return invalid order" style="html=1;verticalAlign=bottom;endArrow=open;dashed=1;endSize=8;exitX=0.233;exitY=0.571;exitDx=0;exitDy=0;exitPerimeter=0;" edge="1" parent="QsC0UkDtgjihkFTkqLXX-17">
          <mxGeometry relative="1" as="geometry">
            <mxPoint x="74.15999999999997" y="285.88199999999995" as="sourcePoint" />
            <mxPoint x="-95" y="284" as="targetPoint" />
            <mxPoint as="offset" />
          </mxGeometry>
        </mxCell>
        <mxCell id="QsC0UkDtgjihkFTkqLXX-22" value="5.1. Return invalid order" style="html=1;verticalAlign=bottom;endArrow=open;dashed=1;endSize=8;exitX=-0.083;exitY=0.621;exitDx=0;exitDy=0;exitPerimeter=0;entryX=0.817;entryY=0.525;entryDx=0;entryDy=0;entryPerimeter=0;" edge="1" parent="QsC0UkDtgjihkFTkqLXX-17">
          <mxGeometry x="-0.027" relative="1" as="geometry">
            <mxPoint x="-112.99999999999994" y="300.693" as="sourcePoint" />
            <mxPoint x="-260.9999999999999" y="301.68500000000006" as="targetPoint" />
            <mxPoint as="offset" />
          </mxGeometry>
        </mxCell>
        <mxCell id="QsC0UkDtgjihkFTkqLXX-23" value="8.1.Return result" style="html=1;verticalAlign=bottom;endArrow=open;dashed=1;endSize=8;entryX=0.942;entryY=0.425;entryDx=0;entryDy=0;entryPerimeter=0;" edge="1" parent="QsC0UkDtgjihkFTkqLXX-17">
          <mxGeometry x="-0.0007" y="1" relative="1" as="geometry">
            <mxPoint x="255.5" y="396.385" as="sourcePoint" />
            <mxPoint x="89.00000000000011" y="396.385" as="targetPoint" />
            <mxPoint as="offset" />
          </mxGeometry>
        </mxCell>
        <mxCell id="QsC0UkDtgjihkFTkqLXX-24" value=":IOrderRepository" style="shape=umlLifeline;perimeter=lifelinePerimeter;container=1;collapsible=0;recursiveResize=0;rounded=0;shadow=0;strokeWidth=1;" vertex="1" parent="QsC0UkDtgjihkFTkqLXX-1">
          <mxGeometry x="659" y="80" width="173" height="517" as="geometry" />
        </mxCell>
        <mxCell id="QsC0UkDtgjihkFTkqLXX-25" value="" style="html=1;points=[];perimeter=orthogonalPerimeter;" vertex="1" parent="QsC0UkDtgjihkFTkqLXX-24">
          <mxGeometry x="81.5" y="170" width="10" height="228" as="geometry" />
        </mxCell>
        <mxCell id="QsC0UkDtgjihkFTkqLXX-26" value="8.1.Return result" style="html=1;verticalAlign=bottom;endArrow=open;dashed=1;endSize=8;entryX=0.817;entryY=0.929;entryDx=0;entryDy=0;entryPerimeter=0;" edge="1" parent="QsC0UkDtgjihkFTkqLXX-24">
          <mxGeometry x="-0.0007" y="1" relative="1" as="geometry">
            <mxPoint x="256" y="383" as="sourcePoint" />
            <mxPoint x="89.67000000000007" y="383.00700000000006" as="targetPoint" />
            <mxPoint as="offset" />
          </mxGeometry>
        </mxCell>
        <mxCell id="QsC0UkDtgjihkFTkqLXX-27" value="1. Select products" style="html=1;verticalAlign=bottom;endArrow=block;" edge="1" parent="QsC0UkDtgjihkFTkqLXX-1">
          <mxGeometry x="-0.0735" y="4" width="80" relative="1" as="geometry">
            <mxPoint x="78" y="199" as="sourcePoint" />
            <mxPoint x="214" y="199" as="targetPoint" />
            <mxPoint as="offset" />
          </mxGeometry>
        </mxCell>
        <mxCell id="QsC0UkDtgjihkFTkqLXX-28" value="3.saveOrder()" style="html=1;verticalAlign=bottom;endArrow=block;exitX=1.022;exitY=0.526;exitDx=0;exitDy=0;exitPerimeter=0;" edge="1" parent="QsC0UkDtgjihkFTkqLXX-1">
          <mxGeometry x="0.008" y="-1" width="80" relative="1" as="geometry">
            <mxPoint x="224.22000000000003" y="251.07999999999993" as="sourcePoint" />
            <mxPoint x="377" y="251" as="targetPoint" />
            <mxPoint as="offset" />
          </mxGeometry>
        </mxCell>
        <mxCell id="QsC0UkDtgjihkFTkqLXX-29" value="6. saveOrder()" style="html=1;verticalAlign=bottom;endArrow=block;entryX=0.15;entryY=0.024;entryDx=0;entryDy=0;entryPerimeter=0;exitX=0.997;exitY=0.073;exitDx=0;exitDy=0;exitPerimeter=0;" edge="1" parent="QsC0UkDtgjihkFTkqLXX-1">
          <mxGeometry x="0.0216" y="-1" width="80" relative="1" as="geometry">
            <mxPoint x="570.97" y="409.97775" as="sourcePoint" />
            <mxPoint x="742" y="411.39200000000005" as="targetPoint" />
            <mxPoint as="offset" />
          </mxGeometry>
        </mxCell>
        <mxCell id="QsC0UkDtgjihkFTkqLXX-30" value="7. executeInsert()" style="html=1;verticalAlign=bottom;endArrow=block;entryX=-0.014;entryY=0.008;entryDx=0;entryDy=0;entryPerimeter=0;" edge="1" parent="QsC0UkDtgjihkFTkqLXX-1">
          <mxGeometry x="0.0909" width="80" relative="1" as="geometry">
            <mxPoint x="751" y="421" as="sourcePoint" />
            <mxPoint x="916.3600000000001" y="420.65999999999997" as="targetPoint" />
            <mxPoint as="offset" />
          </mxGeometry>
        </mxCell>
        <mxCell id="FanzXvzl6-t4-ikvRqov-0" value="2. Click &quot;Purchase&quot; button" style="html=1;verticalAlign=bottom;endArrow=block;" edge="1" parent="QsC0UkDtgjihkFTkqLXX-1">
          <mxGeometry x="-0.0735" y="4" width="80" relative="1" as="geometry">
            <mxPoint x="81" y="226" as="sourcePoint" />
            <mxPoint x="217" y="226" as="targetPoint" />
            <mxPoint as="offset" />
          </mxGeometry>
        </mxCell>
        <mxCell id="FanzXvzl6-t4-ikvRqov-1" value="" style="endArrow=none;dashed=1;html=1;rounded=0;" edge="1" parent="QsC0UkDtgjihkFTkqLXX-1" target="FanzXvzl6-t4-ikvRqov-2">
          <mxGeometry width="50" height="50" relative="1" as="geometry">
            <mxPoint x="81" y="1617" as="sourcePoint" />
            <mxPoint x="83" y="767" as="targetPoint" />
          </mxGeometry>
        </mxCell>
        <mxCell id="FanzXvzl6-t4-ikvRqov-2" value="User" style="shape=umlActor;verticalLabelPosition=bottom;verticalAlign=top;html=1;" vertex="1" parent="QsC0UkDtgjihkFTkqLXX-1">
          <mxGeometry x="66" y="662" width="30" height="60" as="geometry" />
        </mxCell>
        <mxCell id="FanzXvzl6-t4-ikvRqov-3" value="Database" style="shape=umlLifeline;perimeter=lifelinePerimeter;container=1;collapsible=0;recursiveResize=0;rounded=0;shadow=0;strokeWidth=1;" vertex="1" parent="QsC0UkDtgjihkFTkqLXX-1">
          <mxGeometry x="857" y="675.5" width="137" height="942" as="geometry" />
        </mxCell>
        <mxCell id="FanzXvzl6-t4-ikvRqov-4" value="" style="html=1;points=[];perimeter=orthogonalPerimeter;" vertex="1" parent="FanzXvzl6-t4-ikvRqov-3">
          <mxGeometry x="63.5" y="198" width="10" height="555" as="geometry" />
        </mxCell>
        <mxCell id="FanzXvzl6-t4-ikvRqov-5" value="View" style="shape=umlLifeline;perimeter=lifelinePerimeter;container=1;collapsible=0;recursiveResize=0;rounded=0;shadow=0;strokeWidth=1;" vertex="1" parent="QsC0UkDtgjihkFTkqLXX-1">
          <mxGeometry x="173" y="677" width="100" height="947" as="geometry" />
        </mxCell>
        <mxCell id="FanzXvzl6-t4-ikvRqov-6" value="" style="html=1;points=[];perimeter=orthogonalPerimeter;" vertex="1" parent="FanzXvzl6-t4-ikvRqov-5">
          <mxGeometry x="45" y="117" width="10" height="749" as="geometry" />
        </mxCell>
        <mxCell id="FanzXvzl6-t4-ikvRqov-7" value=":OrderDetailController" style="shape=umlLifeline;perimeter=lifelinePerimeter;container=1;collapsible=0;recursiveResize=0;rounded=0;shadow=0;strokeWidth=1;" vertex="1" parent="QsC0UkDtgjihkFTkqLXX-1">
          <mxGeometry x="303" y="675" width="168" height="952" as="geometry" />
        </mxCell>
        <mxCell id="FanzXvzl6-t4-ikvRqov-8" value="" style="html=1;points=[];perimeter=orthogonalPerimeter;" vertex="1" parent="FanzXvzl6-t4-ikvRqov-7">
          <mxGeometry x="78" y="137.5" width="10" height="658.5" as="geometry" />
        </mxCell>
        <mxCell id="FanzXvzl6-t4-ikvRqov-9" value="10. saveOrderDetail()" style="html=1;verticalAlign=bottom;endArrow=block;entryX=-0.1;entryY=0.009;entryDx=0;entryDy=0;entryPerimeter=0;" edge="1" parent="FanzXvzl6-t4-ikvRqov-7">
          <mxGeometry x="0.0909" width="80" relative="1" as="geometry">
            <mxPoint x="90" y="191" as="sourcePoint" />
            <mxPoint x="261" y="192.06574999999998" as="targetPoint" />
            <mxPoint as="offset" />
          </mxGeometry>
        </mxCell>
        <mxCell id="FanzXvzl6-t4-ikvRqov-10" value="alt&amp;nbsp;validate order info" style="shape=umlFrame;whiteSpace=wrap;html=1;width=189;height=25;" vertex="1" parent="FanzXvzl6-t4-ikvRqov-7">
          <mxGeometry x="-299" y="236" width="984" height="233" as="geometry" />
        </mxCell>
        <mxCell id="FanzXvzl6-t4-ikvRqov-11" value="[Invalid order]" style="text;html=1;strokeColor=none;fillColor=none;align=center;verticalAlign=middle;whiteSpace=wrap;rounded=0;" vertex="1" parent="FanzXvzl6-t4-ikvRqov-7">
          <mxGeometry x="-222" y="262" width="126" height="30" as="geometry" />
        </mxCell>
        <mxCell id="FanzXvzl6-t4-ikvRqov-12" value="" style="endArrow=none;dashed=1;html=1;rounded=0;exitX=0.002;exitY=0.568;exitDx=0;exitDy=0;exitPerimeter=0;" edge="1" parent="FanzXvzl6-t4-ikvRqov-7">
          <mxGeometry width="50" height="50" relative="1" as="geometry">
            <mxPoint x="-297.10799999999995" y="316.264" as="sourcePoint" />
            <mxPoint x="680" y="322" as="targetPoint" />
          </mxGeometry>
        </mxCell>
        <mxCell id="FanzXvzl6-t4-ikvRqov-13" value="[Valid order]" style="text;html=1;strokeColor=none;fillColor=none;align=center;verticalAlign=middle;whiteSpace=wrap;rounded=0;" vertex="1" parent="FanzXvzl6-t4-ikvRqov-7">
          <mxGeometry x="-220" y="329" width="120" height="30" as="geometry" />
        </mxCell>
        <mxCell id="FanzXvzl6-t4-ikvRqov-14" value="14.1.Return result" style="html=1;verticalAlign=bottom;endArrow=open;dashed=1;endSize=8;entryX=0.942;entryY=0.425;entryDx=0;entryDy=0;entryPerimeter=0;exitX=-0.05;exitY=0.553;exitDx=0;exitDy=0;exitPerimeter=0;" edge="1" parent="FanzXvzl6-t4-ikvRqov-7">
          <mxGeometry x="-0.0007" y="1" relative="1" as="geometry">
            <mxPoint x="257" y="412" as="sourcePoint" />
            <mxPoint x="91.00000000000011" y="412.385" as="targetPoint" />
            <mxPoint as="offset" />
          </mxGeometry>
        </mxCell>
        <mxCell id="FanzXvzl6-t4-ikvRqov-15" value="14.1.Return result" style="html=1;verticalAlign=bottom;endArrow=open;dashed=1;endSize=8;entryX=0.942;entryY=0.425;entryDx=0;entryDy=0;entryPerimeter=0;" edge="1" parent="FanzXvzl6-t4-ikvRqov-7">
          <mxGeometry x="-0.0007" y="1" relative="1" as="geometry">
            <mxPoint x="77" y="426" as="sourcePoint" />
            <mxPoint x="-74.99999999999989" y="426.385" as="targetPoint" />
            <mxPoint as="offset" />
          </mxGeometry>
        </mxCell>
        <mxCell id="2n0ryRI6nwML5WnkV2fo-6" value="16.findOrderDetaiByUserIdl()()" style="html=1;verticalAlign=bottom;endArrow=block;entryX=-0.1;entryY=0.009;entryDx=0;entryDy=0;entryPerimeter=0;" edge="1" parent="FanzXvzl6-t4-ikvRqov-7">
          <mxGeometry x="0.0909" width="80" relative="1" as="geometry">
            <mxPoint x="88" y="520.9300000000001" as="sourcePoint" />
            <mxPoint x="259" y="521.99575" as="targetPoint" />
            <mxPoint as="offset" />
          </mxGeometry>
        </mxCell>
        <mxCell id="FanzXvzl6-t4-ikvRqov-16" value=":IOrderDetailService" style="shape=umlLifeline;perimeter=lifelinePerimeter;container=1;collapsible=0;recursiveResize=0;rounded=0;shadow=0;strokeWidth=1;" vertex="1" parent="QsC0UkDtgjihkFTkqLXX-1">
          <mxGeometry x="489" y="677" width="162" height="946" as="geometry" />
        </mxCell>
        <mxCell id="FanzXvzl6-t4-ikvRqov-17" value="" style="html=1;points=[];perimeter=orthogonalPerimeter;" vertex="1" parent="FanzXvzl6-t4-ikvRqov-16">
          <mxGeometry x="76" y="158.25" width="10" height="619.75" as="geometry" />
        </mxCell>
        <mxCell id="FanzXvzl6-t4-ikvRqov-18" value="11.1. Return invalid order" style="html=1;verticalAlign=bottom;endArrow=open;dashed=1;endSize=8;exitX=0.233;exitY=0.571;exitDx=0;exitDy=0;exitPerimeter=0;" edge="1" parent="FanzXvzl6-t4-ikvRqov-16">
          <mxGeometry relative="1" as="geometry">
            <mxPoint x="74.15999999999997" y="285.88199999999995" as="sourcePoint" />
            <mxPoint x="-95" y="284" as="targetPoint" />
            <mxPoint as="offset" />
          </mxGeometry>
        </mxCell>
        <mxCell id="FanzXvzl6-t4-ikvRqov-19" value="11.1. Return invalid order" style="html=1;verticalAlign=bottom;endArrow=open;dashed=1;endSize=8;exitX=-0.083;exitY=0.621;exitDx=0;exitDy=0;exitPerimeter=0;entryX=0.817;entryY=0.525;entryDx=0;entryDy=0;entryPerimeter=0;" edge="1" parent="FanzXvzl6-t4-ikvRqov-16">
          <mxGeometry x="-0.027" relative="1" as="geometry">
            <mxPoint x="-112.99999999999994" y="300.693" as="sourcePoint" />
            <mxPoint x="-260.9999999999999" y="301.68500000000006" as="targetPoint" />
            <mxPoint as="offset" />
          </mxGeometry>
        </mxCell>
        <mxCell id="FanzXvzl6-t4-ikvRqov-20" value="14.1.Return result" style="html=1;verticalAlign=bottom;endArrow=open;dashed=1;endSize=8;entryX=0.942;entryY=0.425;entryDx=0;entryDy=0;entryPerimeter=0;" edge="1" parent="FanzXvzl6-t4-ikvRqov-16">
          <mxGeometry x="-0.0007" y="1" relative="1" as="geometry">
            <mxPoint x="255.5" y="396.385" as="sourcePoint" />
            <mxPoint x="89.00000000000011" y="396.385" as="targetPoint" />
            <mxPoint as="offset" />
          </mxGeometry>
        </mxCell>
        <mxCell id="FanzXvzl6-t4-ikvRqov-21" value=":IOrderDetailRepository" style="shape=umlLifeline;perimeter=lifelinePerimeter;container=1;collapsible=0;recursiveResize=0;rounded=0;shadow=0;strokeWidth=1;" vertex="1" parent="QsC0UkDtgjihkFTkqLXX-1">
          <mxGeometry x="663" y="677" width="173" height="936" as="geometry" />
        </mxCell>
        <mxCell id="FanzXvzl6-t4-ikvRqov-22" value="" style="html=1;points=[];perimeter=orthogonalPerimeter;" vertex="1" parent="FanzXvzl6-t4-ikvRqov-21">
          <mxGeometry x="81.5" y="170" width="10" height="595" as="geometry" />
        </mxCell>
        <mxCell id="FanzXvzl6-t4-ikvRqov-23" value="14.1.Return result" style="html=1;verticalAlign=bottom;endArrow=open;dashed=1;endSize=8;entryX=0.817;entryY=0.929;entryDx=0;entryDy=0;entryPerimeter=0;" edge="1" parent="FanzXvzl6-t4-ikvRqov-21">
          <mxGeometry x="-0.0007" y="1" relative="1" as="geometry">
            <mxPoint x="256" y="383" as="sourcePoint" />
            <mxPoint x="89.67000000000007" y="383.00700000000006" as="targetPoint" />
            <mxPoint as="offset" />
          </mxGeometry>
        </mxCell>
        <mxCell id="FanzXvzl6-t4-ikvRqov-25" value="9.saveOrderDetail()" style="html=1;verticalAlign=bottom;endArrow=block;exitX=1.022;exitY=0.526;exitDx=0;exitDy=0;exitPerimeter=0;" edge="1" parent="QsC0UkDtgjihkFTkqLXX-1">
          <mxGeometry x="0.008" y="-1" width="80" relative="1" as="geometry">
            <mxPoint x="228.22000000000003" y="848.0799999999999" as="sourcePoint" />
            <mxPoint x="381" y="848" as="targetPoint" />
            <mxPoint as="offset" />
          </mxGeometry>
        </mxCell>
        <mxCell id="FanzXvzl6-t4-ikvRqov-26" value="12. saveOrderDetail()" style="html=1;verticalAlign=bottom;endArrow=block;entryX=0.15;entryY=0.024;entryDx=0;entryDy=0;entryPerimeter=0;exitX=0.997;exitY=0.073;exitDx=0;exitDy=0;exitPerimeter=0;" edge="1" parent="QsC0UkDtgjihkFTkqLXX-1">
          <mxGeometry x="0.0216" y="-1" width="80" relative="1" as="geometry">
            <mxPoint x="574.97" y="1006.97775" as="sourcePoint" />
            <mxPoint x="746" y="1008.392" as="targetPoint" />
            <mxPoint as="offset" />
          </mxGeometry>
        </mxCell>
        <mxCell id="FanzXvzl6-t4-ikvRqov-27" value="13. executeInsert()" style="html=1;verticalAlign=bottom;endArrow=block;entryX=-0.014;entryY=0.008;entryDx=0;entryDy=0;entryPerimeter=0;" edge="1" parent="QsC0UkDtgjihkFTkqLXX-1">
          <mxGeometry x="0.0909" width="80" relative="1" as="geometry">
            <mxPoint x="755" y="1018" as="sourcePoint" />
            <mxPoint x="920.3600000000001" y="1017.6599999999999" as="targetPoint" />
            <mxPoint as="offset" />
          </mxGeometry>
        </mxCell>
        <mxCell id="FanzXvzl6-t4-ikvRqov-31" value="[Save order]" style="text;html=1;strokeColor=none;fillColor=none;align=center;verticalAlign=middle;whiteSpace=wrap;rounded=0;" vertex="1" parent="QsC0UkDtgjihkFTkqLXX-1">
          <mxGeometry x="80" y="768" width="120" height="30" as="geometry" />
        </mxCell>
        <mxCell id="2n0ryRI6nwML5WnkV2fo-0" value="15.findOrderDetaiByUserIdl()" style="html=1;verticalAlign=bottom;endArrow=block;exitX=1.022;exitY=0.526;exitDx=0;exitDy=0;exitPerimeter=0;" edge="1" parent="QsC0UkDtgjihkFTkqLXX-1">
          <mxGeometry x="0.008" y="-1" width="80" relative="1" as="geometry">
            <mxPoint x="230.00000000000003" y="1173.08" as="sourcePoint" />
            <mxPoint x="382.78" y="1173" as="targetPoint" />
            <mxPoint as="offset" />
          </mxGeometry>
        </mxCell>
        <mxCell id="2n0ryRI6nwML5WnkV2fo-7" value="17.findOrderDetaiByUserIdl()" style="html=1;verticalAlign=bottom;endArrow=block;entryX=0.15;entryY=0.024;entryDx=0;entryDy=0;entryPerimeter=0;exitX=0.997;exitY=0.073;exitDx=0;exitDy=0;exitPerimeter=0;" edge="1" parent="QsC0UkDtgjihkFTkqLXX-1">
          <mxGeometry x="0.0216" y="-1" width="80" relative="1" as="geometry">
            <mxPoint x="575" y="1225.99775" as="sourcePoint" />
            <mxPoint x="746.03" y="1227.412" as="targetPoint" />
            <mxPoint as="offset" />
          </mxGeometry>
        </mxCell>
        <mxCell id="2n0ryRI6nwML5WnkV2fo-8" value="18. executeQuery()" style="html=1;verticalAlign=bottom;endArrow=block;entryX=-0.014;entryY=0.008;entryDx=0;entryDy=0;entryPerimeter=0;" edge="1" parent="QsC0UkDtgjihkFTkqLXX-1">
          <mxGeometry x="0.0909" width="80" relative="1" as="geometry">
            <mxPoint x="755.03" y="1237.02" as="sourcePoint" />
            <mxPoint x="920.3900000000001" y="1236.6799999999998" as="targetPoint" />
            <mxPoint as="offset" />
          </mxGeometry>
        </mxCell>
        <mxCell id="2n0ryRI6nwML5WnkV2fo-9" value="alt&amp;nbsp;find all order detail by user Id" style="shape=umlFrame;whiteSpace=wrap;html=1;width=189;height=25;" vertex="1" parent="QsC0UkDtgjihkFTkqLXX-1">
          <mxGeometry x="6" y="1278" width="984" height="233" as="geometry" />
        </mxCell>
        <mxCell id="2n0ryRI6nwML5WnkV2fo-10" value="[Not found order]" style="text;html=1;strokeColor=none;fillColor=none;align=center;verticalAlign=middle;whiteSpace=wrap;rounded=0;" vertex="1" parent="QsC0UkDtgjihkFTkqLXX-1">
          <mxGeometry x="77" y="1321" width="126" height="30" as="geometry" />
        </mxCell>
        <mxCell id="2n0ryRI6nwML5WnkV2fo-12" value="" style="endArrow=none;dashed=1;html=1;rounded=0;exitX=-0.003;exitY=0.512;exitDx=0;exitDy=0;exitPerimeter=0;" edge="1" parent="QsC0UkDtgjihkFTkqLXX-1" source="2n0ryRI6nwML5WnkV2fo-9">
          <mxGeometry width="50" height="50" relative="1" as="geometry">
            <mxPoint x="12.892000000000053" y="1391.634" as="sourcePoint" />
            <mxPoint x="990" y="1397.37" as="targetPoint" />
          </mxGeometry>
        </mxCell>
        <mxCell id="2n0ryRI6nwML5WnkV2fo-13" value="Found order]" style="text;html=1;strokeColor=none;fillColor=none;align=center;verticalAlign=middle;whiteSpace=wrap;rounded=0;" vertex="1" parent="QsC0UkDtgjihkFTkqLXX-1">
          <mxGeometry x="80" y="1419" width="120" height="30" as="geometry" />
        </mxCell>
        <mxCell id="2n0ryRI6nwML5WnkV2fo-14" value="20.1.Return result" style="html=1;verticalAlign=bottom;endArrow=open;dashed=1;endSize=8;entryX=0.942;entryY=0.425;entryDx=0;entryDy=0;entryPerimeter=0;exitX=-0.05;exitY=0.553;exitDx=0;exitDy=0;exitPerimeter=0;" edge="1" parent="QsC0UkDtgjihkFTkqLXX-1">
          <mxGeometry x="-0.0007" y="1" relative="1" as="geometry">
            <mxPoint x="560.11" y="1454" as="sourcePoint" />
            <mxPoint x="394.1100000000001" y="1454.385" as="targetPoint" />
            <mxPoint as="offset" />
          </mxGeometry>
        </mxCell>
        <mxCell id="2n0ryRI6nwML5WnkV2fo-15" value="20.1.Return result" style="html=1;verticalAlign=bottom;endArrow=open;dashed=1;endSize=8;entryX=0.942;entryY=0.425;entryDx=0;entryDy=0;entryPerimeter=0;" edge="1" parent="QsC0UkDtgjihkFTkqLXX-1">
          <mxGeometry x="-0.0007" y="1" relative="1" as="geometry">
            <mxPoint x="380.11" y="1468" as="sourcePoint" />
            <mxPoint x="228.11000000000013" y="1468.385" as="targetPoint" />
            <mxPoint as="offset" />
          </mxGeometry>
        </mxCell>
        <mxCell id="2n0ryRI6nwML5WnkV2fo-18" value="20.1.Return result" style="html=1;verticalAlign=bottom;endArrow=open;dashed=1;endSize=8;entryX=0.942;entryY=0.425;entryDx=0;entryDy=0;entryPerimeter=0;" edge="1" parent="QsC0UkDtgjihkFTkqLXX-1">
          <mxGeometry x="-0.0007" y="1" relative="1" as="geometry">
            <mxPoint x="744.61" y="1440.385" as="sourcePoint" />
            <mxPoint x="578.1100000000001" y="1440.385" as="targetPoint" />
            <mxPoint as="offset" />
          </mxGeometry>
        </mxCell>
        <mxCell id="2n0ryRI6nwML5WnkV2fo-19" value="20.1.Return result" style="html=1;verticalAlign=bottom;endArrow=open;dashed=1;endSize=8;entryX=0.817;entryY=0.929;entryDx=0;entryDy=0;entryPerimeter=0;" edge="1" parent="QsC0UkDtgjihkFTkqLXX-1">
          <mxGeometry x="-0.0007" y="1" relative="1" as="geometry">
            <mxPoint x="919.11" y="1427" as="sourcePoint" />
            <mxPoint x="752.7800000000001" y="1427.007" as="targetPoint" />
            <mxPoint as="offset" />
          </mxGeometry>
        </mxCell>
        <mxCell id="C-geGP11Ab17wmhboqVu-0" value="19.1. Return null" style="html=1;verticalAlign=bottom;endArrow=open;dashed=1;endSize=8;entryX=1.15;entryY=0.488;entryDx=0;entryDy=0;entryPerimeter=0;" edge="1" parent="QsC0UkDtgjihkFTkqLXX-1">
          <mxGeometry x="-0.0007" y="1" relative="1" as="geometry">
            <mxPoint x="919" y="1307" as="sourcePoint" />
            <mxPoint x="755" y="1307" as="targetPoint" />
            <mxPoint as="offset" />
          </mxGeometry>
        </mxCell>
        <mxCell id="C-geGP11Ab17wmhboqVu-1" value="19.1. Return null" style="html=1;verticalAlign=bottom;endArrow=open;dashed=1;endSize=8;entryX=1.15;entryY=0.488;entryDx=0;entryDy=0;entryPerimeter=0;" edge="1" parent="QsC0UkDtgjihkFTkqLXX-1">
          <mxGeometry x="-0.0007" y="1" relative="1" as="geometry">
            <mxPoint x="742" y="1327" as="sourcePoint" />
            <mxPoint x="578" y="1327" as="targetPoint" />
            <mxPoint as="offset" />
          </mxGeometry>
        </mxCell>
        <mxCell id="C-geGP11Ab17wmhboqVu-2" value="19.1. Return null" style="html=1;verticalAlign=bottom;endArrow=open;dashed=1;endSize=8;entryX=1.15;entryY=0.488;entryDx=0;entryDy=0;entryPerimeter=0;" edge="1" parent="QsC0UkDtgjihkFTkqLXX-1">
          <mxGeometry x="-0.0007" y="1" relative="1" as="geometry">
            <mxPoint x="565" y="1340" as="sourcePoint" />
            <mxPoint x="392" y="1340" as="targetPoint" />
            <mxPoint as="offset" />
          </mxGeometry>
        </mxCell>
        <mxCell id="C-geGP11Ab17wmhboqVu-3" value="19.1. Return null" style="html=1;verticalAlign=bottom;endArrow=open;dashed=1;endSize=8;" edge="1" parent="QsC0UkDtgjihkFTkqLXX-1">
          <mxGeometry x="-0.0007" y="1" relative="1" as="geometry">
            <mxPoint x="384" y="1365" as="sourcePoint" />
            <mxPoint x="228" y="1365" as="targetPoint" />
            <mxPoint as="offset" />
          </mxGeometry>
        </mxCell>
        <mxCell id="BSr_rA54xs57FWos8gzn-0" value="21.Display view" style="html=1;verticalAlign=bottom;endArrow=open;dashed=1;endSize=8;exitX=-0.267;exitY=0.994;exitDx=0;exitDy=0;exitPerimeter=0;" edge="1" parent="QsC0UkDtgjihkFTkqLXX-1">
          <mxGeometry x="0.0176" relative="1" as="geometry">
            <mxPoint x="216.32999999999993" y="1545.002" as="sourcePoint" />
            <mxPoint x="84" y="1545.54" as="targetPoint" />
            <mxPoint as="offset" />
          </mxGeometry>
        </mxCell>
        <mxCell id="Lg5p9E9FM-ug1SZfaYTw-0" value="[Save order detail]" style="text;html=1;strokeColor=none;fillColor=none;align=center;verticalAlign=middle;whiteSpace=wrap;rounded=0;" vertex="1" parent="QsC0UkDtgjihkFTkqLXX-1">
          <mxGeometry x="86" y="1158" width="120" height="30" as="geometry" />
        </mxCell>
      </root>
    </mxGraphModel>
  </diagram>
  <diagram name="9.1.Payment Shopping Cart" id="kMDee1tmcYYZih3_gStv">
    <mxGraphModel dx="1246" dy="519" grid="0" gridSize="10" guides="1" tooltips="1" connect="1" arrows="1" fold="1" page="1" pageScale="1" pageWidth="850" pageHeight="1100" math="0" shadow="0">
      <root>
        <mxCell id="oRznonwhugp7sbsXpVh1-0" />
        <mxCell id="oRznonwhugp7sbsXpVh1-1" parent="oRznonwhugp7sbsXpVh1-0" />
        <mxCell id="oRznonwhugp7sbsXpVh1-2" value="" style="endArrow=none;dashed=1;html=1;rounded=0;" edge="1" parent="oRznonwhugp7sbsXpVh1-1" target="oRznonwhugp7sbsXpVh1-3">
          <mxGeometry width="50" height="50" relative="1" as="geometry">
            <mxPoint x="77" y="607" as="sourcePoint" />
            <mxPoint x="79" y="170" as="targetPoint" />
          </mxGeometry>
        </mxCell>
        <mxCell id="oRznonwhugp7sbsXpVh1-3" value="User" style="shape=umlActor;verticalLabelPosition=bottom;verticalAlign=top;html=1;" vertex="1" parent="oRznonwhugp7sbsXpVh1-1">
          <mxGeometry x="62" y="65" width="30" height="60" as="geometry" />
        </mxCell>
        <mxCell id="oRznonwhugp7sbsXpVh1-4" value="Database" style="shape=umlLifeline;perimeter=lifelinePerimeter;container=1;collapsible=0;recursiveResize=0;rounded=0;shadow=0;strokeWidth=1;" vertex="1" parent="oRznonwhugp7sbsXpVh1-1">
          <mxGeometry x="853" y="78.5" width="137" height="518.5" as="geometry" />
        </mxCell>
        <mxCell id="oRznonwhugp7sbsXpVh1-5" value="" style="html=1;points=[];perimeter=orthogonalPerimeter;" vertex="1" parent="oRznonwhugp7sbsXpVh1-4">
          <mxGeometry x="63.5" y="198" width="10" height="185" as="geometry" />
        </mxCell>
        <mxCell id="oRznonwhugp7sbsXpVh1-6" value="View" style="shape=umlLifeline;perimeter=lifelinePerimeter;container=1;collapsible=0;recursiveResize=0;rounded=0;shadow=0;strokeWidth=1;" vertex="1" parent="oRznonwhugp7sbsXpVh1-1">
          <mxGeometry x="169" y="80" width="100" height="517" as="geometry" />
        </mxCell>
        <mxCell id="oRznonwhugp7sbsXpVh1-7" value="" style="html=1;points=[];perimeter=orthogonalPerimeter;" vertex="1" parent="oRznonwhugp7sbsXpVh1-6">
          <mxGeometry x="45" y="117" width="10" height="379" as="geometry" />
        </mxCell>
        <mxCell id="oRznonwhugp7sbsXpVh1-8" value=":OrderController" style="shape=umlLifeline;perimeter=lifelinePerimeter;container=1;collapsible=0;recursiveResize=0;rounded=0;shadow=0;strokeWidth=1;" vertex="1" parent="oRznonwhugp7sbsXpVh1-1">
          <mxGeometry x="299" y="78" width="168" height="522" as="geometry" />
        </mxCell>
        <mxCell id="oRznonwhugp7sbsXpVh1-11" value="alt&amp;nbsp;validate order info" style="shape=umlFrame;whiteSpace=wrap;html=1;width=189;height=25;" vertex="1" parent="oRznonwhugp7sbsXpVh1-8">
          <mxGeometry x="-299" y="236" width="984" height="233" as="geometry" />
        </mxCell>
        <mxCell id="oRznonwhugp7sbsXpVh1-9" value="" style="html=1;points=[];perimeter=orthogonalPerimeter;" vertex="1" parent="oRznonwhugp7sbsXpVh1-8">
          <mxGeometry x="78" y="137.5" width="10" height="291.5" as="geometry" />
        </mxCell>
        <mxCell id="oRznonwhugp7sbsXpVh1-10" value="3. updateOrder()" style="html=1;verticalAlign=bottom;endArrow=block;entryX=-0.1;entryY=0.009;entryDx=0;entryDy=0;entryPerimeter=0;" edge="1" parent="oRznonwhugp7sbsXpVh1-8">
          <mxGeometry x="0.0909" width="80" relative="1" as="geometry">
            <mxPoint x="90" y="191" as="sourcePoint" />
            <mxPoint x="261" y="192.06574999999998" as="targetPoint" />
            <mxPoint as="offset" />
          </mxGeometry>
        </mxCell>
        <mxCell id="oRznonwhugp7sbsXpVh1-12" value="[Invalid order]" style="text;html=1;strokeColor=none;fillColor=none;align=center;verticalAlign=middle;whiteSpace=wrap;rounded=0;" vertex="1" parent="oRznonwhugp7sbsXpVh1-8">
          <mxGeometry x="-222" y="262" width="126" height="30" as="geometry" />
        </mxCell>
        <mxCell id="oRznonwhugp7sbsXpVh1-13" value="" style="endArrow=none;dashed=1;html=1;rounded=0;exitX=0.002;exitY=0.568;exitDx=0;exitDy=0;exitPerimeter=0;" edge="1" parent="oRznonwhugp7sbsXpVh1-8">
          <mxGeometry width="50" height="50" relative="1" as="geometry">
            <mxPoint x="-297.10799999999995" y="316.264" as="sourcePoint" />
            <mxPoint x="680" y="322" as="targetPoint" />
          </mxGeometry>
        </mxCell>
        <mxCell id="oRznonwhugp7sbsXpVh1-14" value="[Valid order]" style="text;html=1;strokeColor=none;fillColor=none;align=center;verticalAlign=middle;whiteSpace=wrap;rounded=0;" vertex="1" parent="oRznonwhugp7sbsXpVh1-8">
          <mxGeometry x="-220" y="329" width="120" height="30" as="geometry" />
        </mxCell>
        <mxCell id="oRznonwhugp7sbsXpVh1-15" value="7.1.Return result" style="html=1;verticalAlign=bottom;endArrow=open;dashed=1;endSize=8;entryX=0.942;entryY=0.425;entryDx=0;entryDy=0;entryPerimeter=0;exitX=-0.05;exitY=0.553;exitDx=0;exitDy=0;exitPerimeter=0;" edge="1" parent="oRznonwhugp7sbsXpVh1-8">
          <mxGeometry x="-0.0007" y="1" relative="1" as="geometry">
            <mxPoint x="257" y="412" as="sourcePoint" />
            <mxPoint x="91.00000000000011" y="412.385" as="targetPoint" />
            <mxPoint as="offset" />
          </mxGeometry>
        </mxCell>
        <mxCell id="oRznonwhugp7sbsXpVh1-16" value="7.1.Return result" style="html=1;verticalAlign=bottom;endArrow=open;dashed=1;endSize=8;entryX=0.942;entryY=0.425;entryDx=0;entryDy=0;entryPerimeter=0;" edge="1" parent="oRznonwhugp7sbsXpVh1-8">
          <mxGeometry x="-0.0007" y="1" relative="1" as="geometry">
            <mxPoint x="77" y="426" as="sourcePoint" />
            <mxPoint x="-74.99999999999989" y="426.385" as="targetPoint" />
            <mxPoint as="offset" />
          </mxGeometry>
        </mxCell>
        <mxCell id="oRznonwhugp7sbsXpVh1-17" value=":IOrderService" style="shape=umlLifeline;perimeter=lifelinePerimeter;container=1;collapsible=0;recursiveResize=0;rounded=0;shadow=0;strokeWidth=1;" vertex="1" parent="oRznonwhugp7sbsXpVh1-1">
          <mxGeometry x="485" y="80" width="162" height="519" as="geometry" />
        </mxCell>
        <mxCell id="oRznonwhugp7sbsXpVh1-18" value="" style="html=1;points=[];perimeter=orthogonalPerimeter;" vertex="1" parent="oRznonwhugp7sbsXpVh1-17">
          <mxGeometry x="76" y="158.25" width="10" height="255.75" as="geometry" />
        </mxCell>
        <mxCell id="oRznonwhugp7sbsXpVh1-19" value="4.1. Return invalid order" style="html=1;verticalAlign=bottom;endArrow=open;dashed=1;endSize=8;exitX=0.233;exitY=0.571;exitDx=0;exitDy=0;exitPerimeter=0;" edge="1" parent="oRznonwhugp7sbsXpVh1-17">
          <mxGeometry relative="1" as="geometry">
            <mxPoint x="74.15999999999997" y="285.88199999999995" as="sourcePoint" />
            <mxPoint x="-95" y="284" as="targetPoint" />
            <mxPoint as="offset" />
          </mxGeometry>
        </mxCell>
        <mxCell id="oRznonwhugp7sbsXpVh1-20" value="4.1. Return invalid order" style="html=1;verticalAlign=bottom;endArrow=open;dashed=1;endSize=8;exitX=-0.083;exitY=0.621;exitDx=0;exitDy=0;exitPerimeter=0;entryX=0.817;entryY=0.525;entryDx=0;entryDy=0;entryPerimeter=0;" edge="1" parent="oRznonwhugp7sbsXpVh1-17">
          <mxGeometry x="-0.027" relative="1" as="geometry">
            <mxPoint x="-112.99999999999994" y="300.693" as="sourcePoint" />
            <mxPoint x="-260.9999999999999" y="301.68500000000006" as="targetPoint" />
            <mxPoint as="offset" />
          </mxGeometry>
        </mxCell>
        <mxCell id="oRznonwhugp7sbsXpVh1-21" value="7.1.Return result" style="html=1;verticalAlign=bottom;endArrow=open;dashed=1;endSize=8;entryX=0.942;entryY=0.425;entryDx=0;entryDy=0;entryPerimeter=0;" edge="1" parent="oRznonwhugp7sbsXpVh1-17">
          <mxGeometry x="-0.0007" y="1" relative="1" as="geometry">
            <mxPoint x="255.5" y="396.385" as="sourcePoint" />
            <mxPoint x="89.00000000000011" y="396.385" as="targetPoint" />
            <mxPoint as="offset" />
          </mxGeometry>
        </mxCell>
        <mxCell id="oRznonwhugp7sbsXpVh1-22" value=":IOrderRepository" style="shape=umlLifeline;perimeter=lifelinePerimeter;container=1;collapsible=0;recursiveResize=0;rounded=0;shadow=0;strokeWidth=1;" vertex="1" parent="oRznonwhugp7sbsXpVh1-1">
          <mxGeometry x="659" y="80" width="173" height="517" as="geometry" />
        </mxCell>
        <mxCell id="oRznonwhugp7sbsXpVh1-23" value="" style="html=1;points=[];perimeter=orthogonalPerimeter;" vertex="1" parent="oRznonwhugp7sbsXpVh1-22">
          <mxGeometry x="81.5" y="170" width="10" height="228" as="geometry" />
        </mxCell>
        <mxCell id="oRznonwhugp7sbsXpVh1-24" value="7.1.Return result" style="html=1;verticalAlign=bottom;endArrow=open;dashed=1;endSize=8;entryX=0.817;entryY=0.929;entryDx=0;entryDy=0;entryPerimeter=0;" edge="1" parent="oRznonwhugp7sbsXpVh1-22">
          <mxGeometry x="-0.0007" y="1" relative="1" as="geometry">
            <mxPoint x="256" y="383" as="sourcePoint" />
            <mxPoint x="89.67000000000007" y="383.00700000000006" as="targetPoint" />
            <mxPoint as="offset" />
          </mxGeometry>
        </mxCell>
        <mxCell id="oRznonwhugp7sbsXpVh1-25" value="1. Click &quot;payment&quot; button" style="html=1;verticalAlign=bottom;endArrow=block;" edge="1" parent="oRznonwhugp7sbsXpVh1-1">
          <mxGeometry x="-0.0735" y="4" width="80" relative="1" as="geometry">
            <mxPoint x="78" y="199" as="sourcePoint" />
            <mxPoint x="214" y="199" as="targetPoint" />
            <mxPoint as="offset" />
          </mxGeometry>
        </mxCell>
        <mxCell id="oRznonwhugp7sbsXpVh1-26" value="2.updateOrder()" style="html=1;verticalAlign=bottom;endArrow=block;exitX=1.022;exitY=0.526;exitDx=0;exitDy=0;exitPerimeter=0;" edge="1" parent="oRznonwhugp7sbsXpVh1-1">
          <mxGeometry x="0.008" y="-1" width="80" relative="1" as="geometry">
            <mxPoint x="224.22000000000003" y="251.07999999999993" as="sourcePoint" />
            <mxPoint x="377" y="251" as="targetPoint" />
            <mxPoint as="offset" />
          </mxGeometry>
        </mxCell>
        <mxCell id="oRznonwhugp7sbsXpVh1-27" value="5. updateOrder()" style="html=1;verticalAlign=bottom;endArrow=block;entryX=0.15;entryY=0.024;entryDx=0;entryDy=0;entryPerimeter=0;exitX=0.997;exitY=0.073;exitDx=0;exitDy=0;exitPerimeter=0;" edge="1" parent="oRznonwhugp7sbsXpVh1-1">
          <mxGeometry x="0.0216" y="-1" width="80" relative="1" as="geometry">
            <mxPoint x="570.97" y="409.97775" as="sourcePoint" />
            <mxPoint x="742" y="411.39200000000005" as="targetPoint" />
            <mxPoint as="offset" />
          </mxGeometry>
        </mxCell>
        <mxCell id="oRznonwhugp7sbsXpVh1-28" value="6. executeUpdate()" style="html=1;verticalAlign=bottom;endArrow=block;entryX=-0.014;entryY=0.008;entryDx=0;entryDy=0;entryPerimeter=0;" edge="1" parent="oRznonwhugp7sbsXpVh1-1">
          <mxGeometry x="0.0909" width="80" relative="1" as="geometry">
            <mxPoint x="751" y="421" as="sourcePoint" />
            <mxPoint x="916.3600000000001" y="420.65999999999997" as="targetPoint" />
            <mxPoint as="offset" />
          </mxGeometry>
        </mxCell>
        <mxCell id="-Al8ttgMMnBuX4YqMDXH-0" value="orderl" style="text;whiteSpace=wrap;html=1;" vertex="1" parent="oRznonwhugp7sbsXpVh1-1">
          <mxGeometry x="773.3333740234375" y="59.333343505859375" width="59" height="36" as="geometry" />
        </mxCell>
        <mxCell id="AK8ypA9m2oqn_sTpPkx5-0" value="8.Display view" style="html=1;verticalAlign=bottom;endArrow=open;dashed=1;endSize=8;entryX=0.942;entryY=0.425;entryDx=0;entryDy=0;entryPerimeter=0;" edge="1" parent="oRznonwhugp7sbsXpVh1-1">
          <mxGeometry x="-0.0007" y="1" relative="1" as="geometry">
            <mxPoint x="213" y="571" as="sourcePoint" />
            <mxPoint x="75.00000000000011" y="571.385" as="targetPoint" />
            <mxPoint as="offset" />
          </mxGeometry>
        </mxCell>
      </root>
    </mxGraphModel>
  </diagram>
  <diagram name="10.Manage User&#39;s Account" id="_Hs94zKeutjKN6-0Du6U">
    <mxGraphModel dx="1169" dy="519" grid="0" gridSize="10" guides="1" tooltips="1" connect="1" arrows="1" fold="1" page="1" pageScale="1" pageWidth="850" pageHeight="1100" math="0" shadow="0">
      <root>
        <mxCell id="dvWC2xwDHhhPUZEjEnD_-0" />
        <mxCell id="dvWC2xwDHhhPUZEjEnD_-1" parent="dvWC2xwDHhhPUZEjEnD_-0" />
        <mxCell id="dvWC2xwDHhhPUZEjEnD_-2" value="" style="endArrow=none;dashed=1;html=1;rounded=0;" edge="1" parent="dvWC2xwDHhhPUZEjEnD_-1" target="dvWC2xwDHhhPUZEjEnD_-3">
          <mxGeometry width="50" height="50" relative="1" as="geometry">
            <mxPoint x="75" y="629.6666870117188" as="sourcePoint" />
            <mxPoint x="79" y="170" as="targetPoint" />
          </mxGeometry>
        </mxCell>
        <mxCell id="dvWC2xwDHhhPUZEjEnD_-3" value="User" style="shape=umlActor;verticalLabelPosition=bottom;verticalAlign=top;html=1;" vertex="1" parent="dvWC2xwDHhhPUZEjEnD_-1">
          <mxGeometry x="62" y="65" width="30" height="60" as="geometry" />
        </mxCell>
        <mxCell id="dvWC2xwDHhhPUZEjEnD_-4" value="Database" style="shape=umlLifeline;perimeter=lifelinePerimeter;container=1;collapsible=0;recursiveResize=0;rounded=0;shadow=0;strokeWidth=1;" vertex="1" parent="dvWC2xwDHhhPUZEjEnD_-1">
          <mxGeometry x="853" y="78.5" width="137" height="575.5" as="geometry" />
        </mxCell>
        <mxCell id="dvWC2xwDHhhPUZEjEnD_-5" value="" style="html=1;points=[];perimeter=orthogonalPerimeter;" vertex="1" parent="dvWC2xwDHhhPUZEjEnD_-4">
          <mxGeometry x="63.5" y="198" width="10" height="185" as="geometry" />
        </mxCell>
        <mxCell id="dvWC2xwDHhhPUZEjEnD_-6" value="View" style="shape=umlLifeline;perimeter=lifelinePerimeter;container=1;collapsible=0;recursiveResize=0;rounded=0;shadow=0;strokeWidth=1;" vertex="1" parent="dvWC2xwDHhhPUZEjEnD_-1">
          <mxGeometry x="169" y="80" width="100" height="557" as="geometry" />
        </mxCell>
        <mxCell id="dvWC2xwDHhhPUZEjEnD_-7" value="" style="html=1;points=[];perimeter=orthogonalPerimeter;" vertex="1" parent="dvWC2xwDHhhPUZEjEnD_-6">
          <mxGeometry x="45" y="117" width="10" height="374" as="geometry" />
        </mxCell>
        <mxCell id="dvWC2xwDHhhPUZEjEnD_-8" value=":UserController" style="shape=umlLifeline;perimeter=lifelinePerimeter;container=1;collapsible=0;recursiveResize=0;rounded=0;shadow=0;strokeWidth=1;" vertex="1" parent="dvWC2xwDHhhPUZEjEnD_-1">
          <mxGeometry x="299" y="78" width="168" height="564" as="geometry" />
        </mxCell>
        <mxCell id="dvWC2xwDHhhPUZEjEnD_-9" value="alt find User info" style="shape=umlFrame;whiteSpace=wrap;html=1;width=189;height=25;" vertex="1" parent="dvWC2xwDHhhPUZEjEnD_-8">
          <mxGeometry x="-299" y="236" width="984" height="233" as="geometry" />
        </mxCell>
        <mxCell id="dvWC2xwDHhhPUZEjEnD_-10" value="" style="html=1;points=[];perimeter=orthogonalPerimeter;" vertex="1" parent="dvWC2xwDHhhPUZEjEnD_-8">
          <mxGeometry x="78" y="137.5" width="10" height="286.5" as="geometry" />
        </mxCell>
        <mxCell id="dvWC2xwDHhhPUZEjEnD_-11" value="3. findUserById()" style="html=1;verticalAlign=bottom;endArrow=block;entryX=-0.1;entryY=0.009;entryDx=0;entryDy=0;entryPerimeter=0;" edge="1" parent="dvWC2xwDHhhPUZEjEnD_-8">
          <mxGeometry x="0.0909" width="80" relative="1" as="geometry">
            <mxPoint x="90" y="191" as="sourcePoint" />
            <mxPoint x="261" y="192.06574999999998" as="targetPoint" />
            <mxPoint as="offset" />
          </mxGeometry>
        </mxCell>
        <mxCell id="dvWC2xwDHhhPUZEjEnD_-12" value="[Invalid User]" style="text;html=1;strokeColor=none;fillColor=none;align=center;verticalAlign=middle;whiteSpace=wrap;rounded=0;" vertex="1" parent="dvWC2xwDHhhPUZEjEnD_-8">
          <mxGeometry x="-222" y="262" width="126" height="30" as="geometry" />
        </mxCell>
        <mxCell id="dvWC2xwDHhhPUZEjEnD_-13" value="" style="endArrow=none;dashed=1;html=1;rounded=0;exitX=0.002;exitY=0.568;exitDx=0;exitDy=0;exitPerimeter=0;" edge="1" parent="dvWC2xwDHhhPUZEjEnD_-8">
          <mxGeometry width="50" height="50" relative="1" as="geometry">
            <mxPoint x="-297.10799999999995" y="316.264" as="sourcePoint" />
            <mxPoint x="680" y="322" as="targetPoint" />
          </mxGeometry>
        </mxCell>
        <mxCell id="dvWC2xwDHhhPUZEjEnD_-14" value="[Valid User]" style="text;html=1;strokeColor=none;fillColor=none;align=center;verticalAlign=middle;whiteSpace=wrap;rounded=0;" vertex="1" parent="dvWC2xwDHhhPUZEjEnD_-8">
          <mxGeometry x="-220" y="329" width="120" height="30" as="geometry" />
        </mxCell>
        <mxCell id="dvWC2xwDHhhPUZEjEnD_-15" value="8.1.Return result" style="html=1;verticalAlign=bottom;endArrow=open;dashed=1;endSize=8;entryX=0.942;entryY=0.425;entryDx=0;entryDy=0;entryPerimeter=0;exitX=-0.05;exitY=0.553;exitDx=0;exitDy=0;exitPerimeter=0;" edge="1" parent="dvWC2xwDHhhPUZEjEnD_-8">
          <mxGeometry x="-0.0007" y="1" relative="1" as="geometry">
            <mxPoint x="257" y="412" as="sourcePoint" />
            <mxPoint x="91.00000000000011" y="412.385" as="targetPoint" />
            <mxPoint as="offset" />
          </mxGeometry>
        </mxCell>
        <mxCell id="dvWC2xwDHhhPUZEjEnD_-16" value="8.1.Return result" style="html=1;verticalAlign=bottom;endArrow=open;dashed=1;endSize=8;entryX=0.942;entryY=0.425;entryDx=0;entryDy=0;entryPerimeter=0;" edge="1" parent="dvWC2xwDHhhPUZEjEnD_-8">
          <mxGeometry x="-0.0007" y="1" relative="1" as="geometry">
            <mxPoint x="77" y="426" as="sourcePoint" />
            <mxPoint x="-74.99999999999989" y="426.385" as="targetPoint" />
            <mxPoint as="offset" />
          </mxGeometry>
        </mxCell>
        <mxCell id="dvWC2xwDHhhPUZEjEnD_-19" value="7.1. Return invalid User" style="html=1;verticalAlign=bottom;endArrow=open;dashed=1;endSize=8;exitX=0.233;exitY=0.571;exitDx=0;exitDy=0;exitPerimeter=0;" edge="1" parent="dvWC2xwDHhhPUZEjEnD_-8">
          <mxGeometry relative="1" as="geometry">
            <mxPoint x="257.15999999999997" y="300.88199999999995" as="sourcePoint" />
            <mxPoint x="88" y="299" as="targetPoint" />
            <mxPoint as="offset" />
          </mxGeometry>
        </mxCell>
        <mxCell id="dvWC2xwDHhhPUZEjEnD_-17" value=":IUserService" style="shape=umlLifeline;perimeter=lifelinePerimeter;container=1;collapsible=0;recursiveResize=0;rounded=0;shadow=0;strokeWidth=1;" vertex="1" parent="dvWC2xwDHhhPUZEjEnD_-1">
          <mxGeometry x="485" y="80" width="162" height="563" as="geometry" />
        </mxCell>
        <mxCell id="dvWC2xwDHhhPUZEjEnD_-18" value="" style="html=1;points=[];perimeter=orthogonalPerimeter;" vertex="1" parent="dvWC2xwDHhhPUZEjEnD_-17">
          <mxGeometry x="76" y="158.25" width="10" height="255.75" as="geometry" />
        </mxCell>
        <mxCell id="dvWC2xwDHhhPUZEjEnD_-20" value="7.1. Return invalid User" style="html=1;verticalAlign=bottom;endArrow=open;dashed=1;endSize=8;exitX=-0.083;exitY=0.621;exitDx=0;exitDy=0;exitPerimeter=0;entryX=0.817;entryY=0.525;entryDx=0;entryDy=0;entryPerimeter=0;" edge="1" parent="dvWC2xwDHhhPUZEjEnD_-17">
          <mxGeometry x="-0.027" relative="1" as="geometry">
            <mxPoint x="-112.99999999999994" y="300.693" as="sourcePoint" />
            <mxPoint x="-260.9999999999999" y="301.68500000000006" as="targetPoint" />
            <mxPoint as="offset" />
          </mxGeometry>
        </mxCell>
        <mxCell id="dvWC2xwDHhhPUZEjEnD_-21" value="8.1.Return result" style="html=1;verticalAlign=bottom;endArrow=open;dashed=1;endSize=8;entryX=0.942;entryY=0.425;entryDx=0;entryDy=0;entryPerimeter=0;" edge="1" parent="dvWC2xwDHhhPUZEjEnD_-17">
          <mxGeometry x="-0.0007" y="1" relative="1" as="geometry">
            <mxPoint x="255.5" y="396.385" as="sourcePoint" />
            <mxPoint x="89.00000000000011" y="396.385" as="targetPoint" />
            <mxPoint as="offset" />
          </mxGeometry>
        </mxCell>
        <mxCell id="dvWC2xwDHhhPUZEjEnD_-27" value="5. findUserById()" style="html=1;verticalAlign=bottom;endArrow=block;entryX=0.15;entryY=0.024;entryDx=0;entryDy=0;entryPerimeter=0;exitX=0.997;exitY=0.073;exitDx=0;exitDy=0;exitPerimeter=0;" edge="1" parent="dvWC2xwDHhhPUZEjEnD_-17">
          <mxGeometry x="0.0216" y="-1" width="80" relative="1" as="geometry">
            <mxPoint x="86" y="210.99775" as="sourcePoint" />
            <mxPoint x="257.03" y="212.41200000000003" as="targetPoint" />
            <mxPoint as="offset" />
          </mxGeometry>
        </mxCell>
        <mxCell id="Ky289WQhjW8YkB_VwmuL-1" value="7.1. Return invalid User" style="html=1;verticalAlign=bottom;endArrow=open;dashed=1;endSize=8;exitX=0.233;exitY=0.571;exitDx=0;exitDy=0;exitPerimeter=0;" edge="1" parent="dvWC2xwDHhhPUZEjEnD_-17">
          <mxGeometry relative="1" as="geometry">
            <mxPoint x="255.15999999999997" y="289.88199999999995" as="sourcePoint" />
            <mxPoint x="86" y="288" as="targetPoint" />
            <mxPoint as="offset" />
          </mxGeometry>
        </mxCell>
        <mxCell id="dvWC2xwDHhhPUZEjEnD_-22" value=":IUserRepository" style="shape=umlLifeline;perimeter=lifelinePerimeter;container=1;collapsible=0;recursiveResize=0;rounded=0;shadow=0;strokeWidth=1;" vertex="1" parent="dvWC2xwDHhhPUZEjEnD_-1">
          <mxGeometry x="659" y="80" width="173" height="563" as="geometry" />
        </mxCell>
        <mxCell id="dvWC2xwDHhhPUZEjEnD_-23" value="" style="html=1;points=[];perimeter=orthogonalPerimeter;" vertex="1" parent="dvWC2xwDHhhPUZEjEnD_-22">
          <mxGeometry x="81.5" y="170" width="10" height="228" as="geometry" />
        </mxCell>
        <mxCell id="dvWC2xwDHhhPUZEjEnD_-24" value="8.1.Return result" style="html=1;verticalAlign=bottom;endArrow=open;dashed=1;endSize=8;entryX=0.817;entryY=0.929;entryDx=0;entryDy=0;entryPerimeter=0;" edge="1" parent="dvWC2xwDHhhPUZEjEnD_-22">
          <mxGeometry x="-0.0007" y="1" relative="1" as="geometry">
            <mxPoint x="256" y="383" as="sourcePoint" />
            <mxPoint x="89.67000000000007" y="383.00700000000006" as="targetPoint" />
            <mxPoint as="offset" />
          </mxGeometry>
        </mxCell>
        <mxCell id="dvWC2xwDHhhPUZEjEnD_-28" value="6. executeQuery()" style="html=1;verticalAlign=bottom;endArrow=block;entryX=-0.014;entryY=0.008;entryDx=0;entryDy=0;entryPerimeter=0;" edge="1" parent="dvWC2xwDHhhPUZEjEnD_-22">
          <mxGeometry x="0.0909" width="80" relative="1" as="geometry">
            <mxPoint x="91.5" y="226.34000000000003" as="sourcePoint" />
            <mxPoint x="256.8600000000001" y="226" as="targetPoint" />
            <mxPoint as="offset" />
          </mxGeometry>
        </mxCell>
        <mxCell id="Ky289WQhjW8YkB_VwmuL-0" value="7.1. Return invalid User" style="html=1;verticalAlign=bottom;endArrow=open;dashed=1;endSize=8;exitX=0.233;exitY=0.571;exitDx=0;exitDy=0;exitPerimeter=0;" edge="1" parent="dvWC2xwDHhhPUZEjEnD_-22">
          <mxGeometry relative="1" as="geometry">
            <mxPoint x="260.65999999999997" y="272.88199999999995" as="sourcePoint" />
            <mxPoint x="91.5" y="271" as="targetPoint" />
            <mxPoint as="offset" />
          </mxGeometry>
        </mxCell>
        <mxCell id="dvWC2xwDHhhPUZEjEnD_-25" value="1. Click &quot;my profile&quot; button" style="html=1;verticalAlign=bottom;endArrow=block;" edge="1" parent="dvWC2xwDHhhPUZEjEnD_-1">
          <mxGeometry x="-0.0735" y="4" width="80" relative="1" as="geometry">
            <mxPoint x="78" y="199" as="sourcePoint" />
            <mxPoint x="214" y="199" as="targetPoint" />
            <mxPoint as="offset" />
          </mxGeometry>
        </mxCell>
        <mxCell id="dvWC2xwDHhhPUZEjEnD_-26" value="2.findUserById()" style="html=1;verticalAlign=bottom;endArrow=block;exitX=1.022;exitY=0.526;exitDx=0;exitDy=0;exitPerimeter=0;" edge="1" parent="dvWC2xwDHhhPUZEjEnD_-1">
          <mxGeometry x="0.008" y="-1" width="80" relative="1" as="geometry">
            <mxPoint x="224.22000000000003" y="251.07999999999993" as="sourcePoint" />
            <mxPoint x="377" y="251" as="targetPoint" />
            <mxPoint as="offset" />
          </mxGeometry>
        </mxCell>
        <mxCell id="dvWC2xwDHhhPUZEjEnD_-30" value="9.Display view" style="html=1;verticalAlign=bottom;endArrow=open;dashed=1;endSize=8;entryX=0.942;entryY=0.425;entryDx=0;entryDy=0;entryPerimeter=0;" edge="1" parent="dvWC2xwDHhhPUZEjEnD_-1">
          <mxGeometry x="-0.0007" y="1" relative="1" as="geometry">
            <mxPoint x="213" y="571" as="sourcePoint" />
            <mxPoint x="75.00000000000011" y="571.385" as="targetPoint" />
            <mxPoint as="offset" />
          </mxGeometry>
        </mxCell>
        <mxCell id="gsr9-syx9rVWizyWebqn-0" value="" style="endArrow=none;dashed=1;html=1;rounded=0;" edge="1" parent="dvWC2xwDHhhPUZEjEnD_-1" target="gsr9-syx9rVWizyWebqn-1">
          <mxGeometry width="50" height="50" relative="1" as="geometry">
            <mxPoint x="84" y="1222.6666870117188" as="sourcePoint" />
            <mxPoint x="88" y="763" as="targetPoint" />
          </mxGeometry>
        </mxCell>
        <mxCell id="gsr9-syx9rVWizyWebqn-1" value="User" style="shape=umlActor;verticalLabelPosition=bottom;verticalAlign=top;html=1;" vertex="1" parent="dvWC2xwDHhhPUZEjEnD_-1">
          <mxGeometry x="71" y="658" width="30" height="60" as="geometry" />
        </mxCell>
        <mxCell id="gsr9-syx9rVWizyWebqn-2" value="Database" style="shape=umlLifeline;perimeter=lifelinePerimeter;container=1;collapsible=0;recursiveResize=0;rounded=0;shadow=0;strokeWidth=1;" vertex="1" parent="dvWC2xwDHhhPUZEjEnD_-1">
          <mxGeometry x="862" y="671.5" width="137" height="575.5" as="geometry" />
        </mxCell>
        <mxCell id="gsr9-syx9rVWizyWebqn-3" value="" style="html=1;points=[];perimeter=orthogonalPerimeter;" vertex="1" parent="gsr9-syx9rVWizyWebqn-2">
          <mxGeometry x="63.5" y="198" width="10" height="185" as="geometry" />
        </mxCell>
        <mxCell id="gsr9-syx9rVWizyWebqn-4" value="View" style="shape=umlLifeline;perimeter=lifelinePerimeter;container=1;collapsible=0;recursiveResize=0;rounded=0;shadow=0;strokeWidth=1;" vertex="1" parent="dvWC2xwDHhhPUZEjEnD_-1">
          <mxGeometry x="178" y="673" width="100" height="557" as="geometry" />
        </mxCell>
        <mxCell id="gsr9-syx9rVWizyWebqn-5" value="" style="html=1;points=[];perimeter=orthogonalPerimeter;" vertex="1" parent="gsr9-syx9rVWizyWebqn-4">
          <mxGeometry x="45" y="117" width="10" height="374" as="geometry" />
        </mxCell>
        <mxCell id="gsr9-syx9rVWizyWebqn-6" value=":UserController" style="shape=umlLifeline;perimeter=lifelinePerimeter;container=1;collapsible=0;recursiveResize=0;rounded=0;shadow=0;strokeWidth=1;" vertex="1" parent="dvWC2xwDHhhPUZEjEnD_-1">
          <mxGeometry x="308" y="671" width="168" height="564" as="geometry" />
        </mxCell>
        <mxCell id="gsr9-syx9rVWizyWebqn-7" value="alt validate password" style="shape=umlFrame;whiteSpace=wrap;html=1;width=189;height=25;" vertex="1" parent="gsr9-syx9rVWizyWebqn-6">
          <mxGeometry x="-299" y="236" width="984" height="233" as="geometry" />
        </mxCell>
        <mxCell id="gsr9-syx9rVWizyWebqn-8" value="" style="html=1;points=[];perimeter=orthogonalPerimeter;" vertex="1" parent="gsr9-syx9rVWizyWebqn-6">
          <mxGeometry x="78" y="137.5" width="10" height="286.5" as="geometry" />
        </mxCell>
        <mxCell id="gsr9-syx9rVWizyWebqn-9" value="3. updatePassword()" style="html=1;verticalAlign=bottom;endArrow=block;entryX=-0.1;entryY=0.009;entryDx=0;entryDy=0;entryPerimeter=0;" edge="1" parent="gsr9-syx9rVWizyWebqn-6">
          <mxGeometry x="0.0909" width="80" relative="1" as="geometry">
            <mxPoint x="90" y="191" as="sourcePoint" />
            <mxPoint x="261" y="192.06574999999998" as="targetPoint" />
            <mxPoint as="offset" />
          </mxGeometry>
        </mxCell>
        <mxCell id="gsr9-syx9rVWizyWebqn-10" value="[Invalid password]" style="text;html=1;strokeColor=none;fillColor=none;align=center;verticalAlign=middle;whiteSpace=wrap;rounded=0;" vertex="1" parent="gsr9-syx9rVWizyWebqn-6">
          <mxGeometry x="-222" y="262" width="126" height="30" as="geometry" />
        </mxCell>
        <mxCell id="gsr9-syx9rVWizyWebqn-11" value="" style="endArrow=none;dashed=1;html=1;rounded=0;exitX=0.002;exitY=0.568;exitDx=0;exitDy=0;exitPerimeter=0;" edge="1" parent="gsr9-syx9rVWizyWebqn-6">
          <mxGeometry width="50" height="50" relative="1" as="geometry">
            <mxPoint x="-297.10799999999995" y="316.264" as="sourcePoint" />
            <mxPoint x="680" y="322" as="targetPoint" />
          </mxGeometry>
        </mxCell>
        <mxCell id="gsr9-syx9rVWizyWebqn-12" value="[Valid password]" style="text;html=1;strokeColor=none;fillColor=none;align=center;verticalAlign=middle;whiteSpace=wrap;rounded=0;" vertex="1" parent="gsr9-syx9rVWizyWebqn-6">
          <mxGeometry x="-220" y="329" width="120" height="30" as="geometry" />
        </mxCell>
        <mxCell id="gsr9-syx9rVWizyWebqn-13" value="8.1.Return result" style="html=1;verticalAlign=bottom;endArrow=open;dashed=1;endSize=8;entryX=0.942;entryY=0.425;entryDx=0;entryDy=0;entryPerimeter=0;exitX=-0.05;exitY=0.553;exitDx=0;exitDy=0;exitPerimeter=0;" edge="1" parent="gsr9-syx9rVWizyWebqn-6">
          <mxGeometry x="-0.0007" y="1" relative="1" as="geometry">
            <mxPoint x="257" y="412" as="sourcePoint" />
            <mxPoint x="91.00000000000011" y="412.385" as="targetPoint" />
            <mxPoint as="offset" />
          </mxGeometry>
        </mxCell>
        <mxCell id="gsr9-syx9rVWizyWebqn-14" value="8.1.Return result" style="html=1;verticalAlign=bottom;endArrow=open;dashed=1;endSize=8;entryX=0.942;entryY=0.425;entryDx=0;entryDy=0;entryPerimeter=0;" edge="1" parent="gsr9-syx9rVWizyWebqn-6">
          <mxGeometry x="-0.0007" y="1" relative="1" as="geometry">
            <mxPoint x="77" y="426" as="sourcePoint" />
            <mxPoint x="-74.99999999999989" y="426.385" as="targetPoint" />
            <mxPoint as="offset" />
          </mxGeometry>
        </mxCell>
        <mxCell id="gsr9-syx9rVWizyWebqn-15" value="4.1. Return invalid&amp;nbsp;" style="html=1;verticalAlign=bottom;endArrow=open;dashed=1;endSize=8;exitX=0.233;exitY=0.571;exitDx=0;exitDy=0;exitPerimeter=0;" edge="1" parent="gsr9-syx9rVWizyWebqn-6">
          <mxGeometry relative="1" as="geometry">
            <mxPoint x="257.15999999999997" y="264.88199999999995" as="sourcePoint" />
            <mxPoint x="88" y="263" as="targetPoint" />
            <mxPoint as="offset" />
          </mxGeometry>
        </mxCell>
        <mxCell id="gsr9-syx9rVWizyWebqn-16" value=":IUserService" style="shape=umlLifeline;perimeter=lifelinePerimeter;container=1;collapsible=0;recursiveResize=0;rounded=0;shadow=0;strokeWidth=1;" vertex="1" parent="dvWC2xwDHhhPUZEjEnD_-1">
          <mxGeometry x="494" y="673" width="162" height="563" as="geometry" />
        </mxCell>
        <mxCell id="gsr9-syx9rVWizyWebqn-17" value="" style="html=1;points=[];perimeter=orthogonalPerimeter;" vertex="1" parent="gsr9-syx9rVWizyWebqn-16">
          <mxGeometry x="76" y="158.25" width="10" height="255.75" as="geometry" />
        </mxCell>
        <mxCell id="gsr9-syx9rVWizyWebqn-18" value="4.1. Return invalid&amp;nbsp;" style="html=1;verticalAlign=bottom;endArrow=open;dashed=1;endSize=8;exitX=-0.083;exitY=0.621;exitDx=0;exitDy=0;exitPerimeter=0;entryX=0.817;entryY=0.525;entryDx=0;entryDy=0;entryPerimeter=0;" edge="1" parent="gsr9-syx9rVWizyWebqn-16">
          <mxGeometry x="-0.027" relative="1" as="geometry">
            <mxPoint x="-112.99999999999994" y="285.693" as="sourcePoint" />
            <mxPoint x="-260.9999999999999" y="286.68500000000006" as="targetPoint" />
            <mxPoint as="offset" />
          </mxGeometry>
        </mxCell>
        <mxCell id="gsr9-syx9rVWizyWebqn-19" value="8.1.Return result" style="html=1;verticalAlign=bottom;endArrow=open;dashed=1;endSize=8;entryX=0.942;entryY=0.425;entryDx=0;entryDy=0;entryPerimeter=0;" edge="1" parent="gsr9-syx9rVWizyWebqn-16">
          <mxGeometry x="-0.0007" y="1" relative="1" as="geometry">
            <mxPoint x="255.5" y="396.385" as="sourcePoint" />
            <mxPoint x="89.00000000000011" y="396.385" as="targetPoint" />
            <mxPoint as="offset" />
          </mxGeometry>
        </mxCell>
        <mxCell id="gsr9-syx9rVWizyWebqn-20" value="5. updatePassword()" style="html=1;verticalAlign=bottom;endArrow=block;entryX=0.15;entryY=0.024;entryDx=0;entryDy=0;entryPerimeter=0;exitX=0.997;exitY=0.073;exitDx=0;exitDy=0;exitPerimeter=0;" edge="1" parent="gsr9-syx9rVWizyWebqn-16">
          <mxGeometry x="0.0173" y="-1" width="80" relative="1" as="geometry">
            <mxPoint x="86" y="289.99775" as="sourcePoint" />
            <mxPoint x="257.03" y="291.41200000000003" as="targetPoint" />
            <mxPoint as="offset" />
          </mxGeometry>
        </mxCell>
        <mxCell id="gsr9-syx9rVWizyWebqn-22" value=":IUserRepository" style="shape=umlLifeline;perimeter=lifelinePerimeter;container=1;collapsible=0;recursiveResize=0;rounded=0;shadow=0;strokeWidth=1;" vertex="1" parent="dvWC2xwDHhhPUZEjEnD_-1">
          <mxGeometry x="668" y="673" width="173" height="563" as="geometry" />
        </mxCell>
        <mxCell id="gsr9-syx9rVWizyWebqn-23" value="" style="html=1;points=[];perimeter=orthogonalPerimeter;" vertex="1" parent="gsr9-syx9rVWizyWebqn-22">
          <mxGeometry x="81.5" y="170" width="10" height="228" as="geometry" />
        </mxCell>
        <mxCell id="gsr9-syx9rVWizyWebqn-24" value="8.1.Return result" style="html=1;verticalAlign=bottom;endArrow=open;dashed=1;endSize=8;entryX=0.817;entryY=0.929;entryDx=0;entryDy=0;entryPerimeter=0;" edge="1" parent="gsr9-syx9rVWizyWebqn-22">
          <mxGeometry x="-0.0007" y="1" relative="1" as="geometry">
            <mxPoint x="256" y="383" as="sourcePoint" />
            <mxPoint x="89.67000000000007" y="383.00700000000006" as="targetPoint" />
            <mxPoint as="offset" />
          </mxGeometry>
        </mxCell>
        <mxCell id="gsr9-syx9rVWizyWebqn-25" value="6. excecuteUpdate()" style="html=1;verticalAlign=bottom;endArrow=block;entryX=-0.014;entryY=0.008;entryDx=0;entryDy=0;entryPerimeter=0;" edge="1" parent="gsr9-syx9rVWizyWebqn-22">
          <mxGeometry x="0.0909" width="80" relative="1" as="geometry">
            <mxPoint x="91.5" y="301.34000000000003" as="sourcePoint" />
            <mxPoint x="256.8600000000001" y="301" as="targetPoint" />
            <mxPoint as="offset" />
          </mxGeometry>
        </mxCell>
        <mxCell id="gsr9-syx9rVWizyWebqn-27" value="1. Click &quot;change pw button" style="html=1;verticalAlign=bottom;endArrow=block;" edge="1" parent="dvWC2xwDHhhPUZEjEnD_-1">
          <mxGeometry x="-0.0735" y="4" width="80" relative="1" as="geometry">
            <mxPoint x="87" y="792" as="sourcePoint" />
            <mxPoint x="223" y="792" as="targetPoint" />
            <mxPoint as="offset" />
          </mxGeometry>
        </mxCell>
        <mxCell id="gsr9-syx9rVWizyWebqn-28" value="2.updatePassword()" style="html=1;verticalAlign=bottom;endArrow=block;exitX=1.022;exitY=0.526;exitDx=0;exitDy=0;exitPerimeter=0;" edge="1" parent="dvWC2xwDHhhPUZEjEnD_-1">
          <mxGeometry x="0.008" y="-1" width="80" relative="1" as="geometry">
            <mxPoint x="233.22000000000003" y="844.0799999999999" as="sourcePoint" />
            <mxPoint x="386" y="844" as="targetPoint" />
            <mxPoint as="offset" />
          </mxGeometry>
        </mxCell>
        <mxCell id="gsr9-syx9rVWizyWebqn-29" value="9.Display view" style="html=1;verticalAlign=bottom;endArrow=open;dashed=1;endSize=8;entryX=0.942;entryY=0.425;entryDx=0;entryDy=0;entryPerimeter=0;" edge="1" parent="dvWC2xwDHhhPUZEjEnD_-1">
          <mxGeometry x="-0.0007" y="1" relative="1" as="geometry">
            <mxPoint x="222" y="1164" as="sourcePoint" />
            <mxPoint x="84.00000000000011" y="1164.385" as="targetPoint" />
            <mxPoint as="offset" />
          </mxGeometry>
        </mxCell>
      </root>
    </mxGraphModel>
  </diagram>
</mxfile>
